<svg width="45" height="45" viewBox="0 0 45 45" fill="none" xmlns="http://www.w3.org/2000/svg">
<path d="M32.8125 22.5C32.0666 22.5 31.3512 22.2037 30.8238 21.6762C30.2963 21.1488 30 20.4334 30 19.6875C30 18.9416 30.2963 18.2262 30.8238 17.6988C31.3512 17.1713 32.0666 16.875 32.8125 16.875C33.5584 16.875 34.2738 17.1713 34.8012 17.6988C35.3287 18.2262 35.625 18.9416 35.625 19.6875C35.625 20.4334 35.3287 21.1488 34.8012 21.6762C34.2738 22.2037 33.5584 22.5 32.8125 22.5ZM27.1875 15C26.4416 15 25.7262 14.7037 25.1988 14.1762C24.6713 13.6488 24.375 12.9334 24.375 12.1875C24.375 11.4416 24.6713 10.7262 25.1988 10.1988C25.7262 9.67132 26.4416 9.375 27.1875 9.375C27.9334 9.375 28.6488 9.67132 29.1762 10.1988C29.7037 10.7262 30 11.4416 30 12.1875C30 12.9334 29.7037 13.6488 29.1762 14.1762C28.6488 14.7037 27.9334 15 27.1875 15ZM17.8125 15C17.0666 15 16.3512 14.7037 15.8238 14.1762C15.2963 13.6488 15 12.9334 15 12.1875C15 11.4416 15.2963 10.7262 15.8238 10.1988C16.3512 9.67132 17.0666 9.375 17.8125 9.375C18.5584 9.375 19.2738 9.67132 19.8012 10.1988C20.3287 10.7262 20.625 11.4416 20.625 12.1875C20.625 12.9334 20.3287 13.6488 19.8012 14.1762C19.2738 14.7037 18.5584 15 17.8125 15ZM12.1875 22.5C11.4416 22.5 10.7262 22.2037 10.1988 21.6762C9.67132 21.1488 9.375 20.4334 9.375 19.6875C9.375 18.9416 9.67132 18.2262 10.1988 17.6988C10.7262 17.1713 11.4416 16.875 12.1875 16.875C12.9334 16.875 13.6488 17.1713 14.1762 17.6988C14.7037 18.2262 15 18.9416 15 19.6875C15 20.4334 14.7037 21.1488 14.1762 21.6762C13.6488 22.2037 12.9334 22.5 12.1875 22.5ZM22.5 5.625C18.0245 5.625 13.7322 7.4029 10.5676 10.5676C7.4029 13.7322 5.625 18.0245 5.625 22.5C5.625 26.9755 7.4029 31.2677 10.5676 34.4324C13.7322 37.5971 18.0245 39.375 22.5 39.375C23.2459 39.375 23.9613 39.0787 24.4887 38.5512C25.0162 38.0238 25.3125 37.3084 25.3125 36.5625C25.3125 35.8312 25.0312 35.175 24.5812 34.6875C24.15 34.1812 23.8687 33.525 23.8687 32.8125C23.8687 32.0666 24.1651 31.3512 24.6925 30.8238C25.22 30.2963 25.9353 30 26.6812 30H30C32.4864 30 34.871 29.0123 36.6291 27.2541C38.3873 25.496 39.375 23.1114 39.375 20.625C39.375 12.3375 31.8188 5.625 22.5 5.625Z" fill="#FF5E53"/>
</svg>
