<svg xmlns="http://www.w3.org/2000/svg" xmlns:xlink="http://www.w3.org/1999/xlink" width="117" zoomAndPan="magnify" viewBox="0 0 87.75 85.499998" height="114" preserveAspectRatio="xMidYMid meet" version="1.0"><defs><clipPath id="243eb18601"><path d="M 7.710938 43 L 43 43 L 43 78.402344 L 7.710938 78.402344 Z M 7.710938 43 " clip-rule="nonzero"/></clipPath><clipPath id="d2c8c1c0ae"><path d="M 44 6.347656 L 79.734375 6.347656 L 79.734375 42 L 44 42 Z M 44 6.347656 " clip-rule="nonzero"/></clipPath></defs><g clip-path="url(#243eb18601)"><path fill="#e71626" d="M 12.359375 66.753906 L 15.84375 66.753906 L 18.167969 71.398438 L 20.488281 66.753906 L 23.972656 66.753906 C 24.28125 66.753906 24.582031 66.78125 24.882812 66.84375 C 25.179688 66.902344 25.472656 66.992188 25.753906 67.105469 C 26.035156 67.222656 26.300781 67.367188 26.554688 67.535156 C 26.808594 67.707031 27.042969 67.898438 27.261719 68.113281 C 27.476562 68.332031 27.667969 68.566406 27.839844 68.820312 C 28.007812 69.070312 28.152344 69.339844 28.265625 69.621094 C 28.382812 69.902344 28.472656 70.195312 28.53125 70.492188 C 28.589844 70.792969 28.621094 71.09375 28.621094 71.398438 L 28.621094 73.722656 L 30.945312 73.722656 L 31.46875 72.691406 C 31.640625 72.335938 31.882812 72.046875 32.203125 71.816406 C 32.523438 71.585938 32.878906 71.449219 33.269531 71.398438 L 33.269531 64.429688 L 26.296875 64.429688 L 26.296875 43.519531 L 42.5625 43.519531 L 42.5625 64.429688 L 35.589844 64.429688 L 35.589844 71.726562 C 35.949219 71.929688 36.230469 72.214844 36.4375 72.570312 C 36.644531 72.925781 36.75 73.3125 36.753906 73.722656 L 36.753906 78.371094 L 25.136719 78.371094 L 25.136719 72.5625 C 25.136719 72.40625 25.105469 72.257812 25.046875 72.117188 C 24.988281 71.976562 24.90625 71.847656 24.796875 71.742188 C 24.6875 71.632812 24.5625 71.546875 24.417969 71.488281 C 24.277344 71.429688 24.128906 71.398438 23.972656 71.398438 C 23.820312 71.398438 23.671875 71.429688 23.53125 71.488281 C 23.386719 71.546875 23.261719 71.632812 23.152344 71.742188 C 23.042969 71.847656 22.960938 71.976562 22.902344 72.117188 C 22.84375 72.257812 22.8125 72.40625 22.8125 72.5625 L 22.8125 78.371094 L 13.519531 78.371094 L 13.519531 72.5625 C 13.519531 72.40625 13.488281 72.257812 13.429688 72.117188 C 13.371094 71.976562 13.289062 71.847656 13.179688 71.742188 C 13.070312 71.632812 12.945312 71.546875 12.800781 71.488281 C 12.660156 71.429688 12.511719 71.398438 12.359375 71.398438 C 12.203125 71.398438 12.054688 71.429688 11.914062 71.488281 C 11.769531 71.546875 11.644531 71.632812 11.535156 71.742188 C 11.425781 71.847656 11.34375 71.976562 11.285156 72.117188 C 11.226562 72.257812 11.195312 72.40625 11.195312 72.5625 L 11.195312 78.371094 L 7.710938 78.371094 L 7.710938 71.398438 C 7.710938 71.09375 7.742188 70.792969 7.800781 70.492188 C 7.859375 70.195312 7.949219 69.902344 8.066406 69.621094 C 8.179688 69.339844 8.324219 69.070312 8.496094 68.820312 C 8.664062 68.566406 8.855469 68.332031 9.070312 68.113281 C 9.289062 67.898438 9.523438 67.707031 9.777344 67.535156 C 10.03125 67.367188 10.296875 67.222656 10.578125 67.105469 C 10.863281 66.992188 11.152344 66.902344 11.453125 66.84375 C 11.75 66.78125 12.054688 66.753906 12.359375 66.753906 Z M 37.914062 56.296875 L 35.589844 56.296875 C 35.589844 56.453125 35.5625 56.601562 35.503906 56.742188 C 35.445312 56.886719 35.359375 57.011719 35.25 57.121094 C 35.140625 57.230469 35.015625 57.3125 34.875 57.371094 C 34.730469 57.429688 34.582031 57.460938 34.429688 57.460938 C 34.277344 57.460938 34.128906 57.429688 33.984375 57.371094 C 33.84375 57.3125 33.71875 57.230469 33.609375 57.121094 C 33.5 57.011719 33.414062 56.886719 33.355469 56.742188 C 33.296875 56.601562 33.269531 56.453125 33.269531 56.296875 C 33.269531 56.144531 33.296875 55.996094 33.355469 55.855469 C 33.414062 55.710938 33.5 55.585938 33.609375 55.476562 C 33.71875 55.367188 33.84375 55.285156 33.984375 55.226562 C 34.128906 55.167969 34.277344 55.136719 34.429688 55.136719 C 34.839844 55.132812 35.234375 55.0625 35.617188 54.917969 C 36 54.777344 36.347656 54.574219 36.660156 54.308594 C 36.96875 54.042969 37.226562 53.734375 37.429688 53.378906 C 37.632812 53.023438 37.769531 52.644531 37.835938 52.242188 C 37.90625 51.839844 37.90625 51.4375 37.832031 51.035156 C 37.761719 50.632812 37.621094 50.253906 37.417969 49.902344 C 37.210938 49.546875 36.953125 49.238281 36.636719 48.976562 C 36.324219 48.714844 35.976562 48.515625 35.589844 48.375 L 35.589844 47.003906 L 33.269531 47.003906 L 33.269531 48.375 C 32.929688 48.496094 32.617188 48.664062 32.328125 48.878906 C 32.042969 49.097656 31.796875 49.351562 31.585938 49.644531 C 31.378906 49.9375 31.21875 50.257812 31.109375 50.597656 C 31 50.941406 30.945312 51.292969 30.945312 51.652344 L 33.269531 51.652344 C 33.269531 51.496094 33.296875 51.347656 33.355469 51.207031 C 33.414062 51.066406 33.5 50.9375 33.609375 50.832031 C 33.71875 50.722656 33.84375 50.636719 33.984375 50.578125 C 34.128906 50.519531 34.277344 50.488281 34.429688 50.488281 C 34.582031 50.488281 34.730469 50.519531 34.875 50.578125 C 35.015625 50.636719 35.140625 50.722656 35.25 50.832031 C 35.359375 50.9375 35.445312 51.066406 35.503906 51.207031 C 35.5625 51.347656 35.589844 51.496094 35.589844 51.652344 C 35.589844 51.804688 35.5625 51.953125 35.503906 52.097656 C 35.445312 52.238281 35.359375 52.363281 35.25 52.472656 C 35.140625 52.582031 35.015625 52.664062 34.875 52.726562 C 34.730469 52.785156 34.582031 52.8125 34.429688 52.8125 C 34.019531 52.816406 33.625 52.890625 33.242188 53.03125 C 32.859375 53.175781 32.511719 53.378906 32.199219 53.640625 C 31.890625 53.90625 31.632812 54.214844 31.429688 54.570312 C 31.226562 54.925781 31.089844 55.304688 31.023438 55.707031 C 30.953125 56.109375 30.953125 56.511719 31.027344 56.914062 C 31.097656 57.316406 31.238281 57.695312 31.441406 58.046875 C 31.648438 58.402344 31.90625 58.710938 32.222656 58.972656 C 32.535156 59.234375 32.882812 59.433594 33.269531 59.574219 L 33.269531 60.945312 L 35.589844 60.945312 L 35.589844 59.574219 C 35.929688 59.453125 36.242188 59.285156 36.53125 59.070312 C 36.816406 58.851562 37.0625 58.597656 37.273438 58.304688 C 37.480469 58.011719 37.640625 57.695312 37.75 57.351562 C 37.859375 57.007812 37.914062 56.65625 37.914062 56.296875 Z M 37.914062 56.296875 " fill-opacity="1" fill-rule="nonzero"/></g><path fill="#e71626" d="M 13.519531 60.945312 C 13.519531 61.25 13.550781 61.550781 13.609375 61.851562 C 13.667969 62.152344 13.757812 62.441406 13.875 62.722656 C 13.988281 63.003906 14.132812 63.273438 14.300781 63.527344 C 14.472656 63.78125 14.664062 64.015625 14.878906 64.230469 C 15.097656 64.445312 15.332031 64.640625 15.585938 64.808594 C 15.839844 64.976562 16.105469 65.121094 16.386719 65.238281 C 16.667969 65.355469 16.960938 65.441406 17.257812 65.503906 C 17.558594 65.5625 17.859375 65.589844 18.167969 65.589844 C 18.472656 65.589844 18.773438 65.5625 19.074219 65.503906 C 19.371094 65.441406 19.664062 65.355469 19.945312 65.238281 C 20.226562 65.121094 20.492188 64.976562 20.746094 64.808594 C 21 64.640625 21.234375 64.445312 21.453125 64.230469 C 21.667969 64.015625 21.859375 63.78125 22.03125 63.527344 C 22.199219 63.273438 22.34375 63.003906 22.460938 62.722656 C 22.574219 62.441406 22.664062 62.152344 22.722656 61.851562 C 22.78125 61.550781 22.8125 61.25 22.8125 60.945312 C 22.8125 60.640625 22.78125 60.335938 22.722656 60.039062 C 22.664062 59.738281 22.574219 59.449219 22.460938 59.167969 C 22.34375 58.886719 22.199219 58.617188 22.03125 58.363281 C 21.859375 58.109375 21.667969 57.875 21.453125 57.660156 C 21.234375 57.445312 21 57.25 20.746094 57.082031 C 20.492188 56.910156 20.226562 56.769531 19.945312 56.652344 C 19.664062 56.535156 19.371094 56.445312 19.074219 56.386719 C 18.773438 56.328125 18.472656 56.296875 18.167969 56.296875 C 17.859375 56.296875 17.558594 56.328125 17.257812 56.386719 C 16.960938 56.445312 16.667969 56.535156 16.386719 56.652344 C 16.105469 56.769531 15.839844 56.910156 15.585938 57.082031 C 15.332031 57.25 15.097656 57.445312 14.878906 57.660156 C 14.664062 57.875 14.472656 58.109375 14.300781 58.363281 C 14.132812 58.617188 13.988281 58.886719 13.875 59.167969 C 13.757812 59.449219 13.667969 59.738281 13.609375 60.039062 C 13.550781 60.335938 13.519531 60.640625 13.519531 60.945312 Z M 13.519531 60.945312 " fill-opacity="1" fill-rule="nonzero"/><g clip-path="url(#d2c8c1c0ae)"><path fill="#e71626" d="M 76.25 35.386719 C 76.25 35.234375 76.21875 35.085938 76.160156 34.945312 C 76.101562 34.800781 76.019531 34.675781 75.910156 34.566406 C 75.800781 34.457031 75.675781 34.375 75.53125 34.316406 C 75.390625 34.257812 75.242188 34.226562 75.089844 34.226562 C 74.933594 34.226562 74.785156 34.257812 74.644531 34.316406 C 74.5 34.375 74.375 34.457031 74.265625 34.566406 C 74.15625 34.675781 74.074219 34.800781 74.015625 34.945312 C 73.957031 35.085938 73.925781 35.234375 73.925781 35.386719 L 73.925781 41.195312 L 64.632812 41.195312 L 64.632812 35.386719 C 64.632812 35.234375 64.605469 35.085938 64.542969 34.945312 C 64.484375 34.800781 64.402344 34.675781 64.292969 34.566406 C 64.183594 34.457031 64.058594 34.375 63.917969 34.316406 C 63.773438 34.257812 63.625 34.226562 63.472656 34.226562 C 63.316406 34.226562 63.167969 34.257812 63.027344 34.316406 C 62.882812 34.375 62.757812 34.457031 62.648438 34.566406 C 62.542969 34.675781 62.457031 34.800781 62.398438 34.945312 C 62.339844 35.085938 62.308594 35.234375 62.308594 35.386719 L 62.308594 41.195312 L 50.691406 41.195312 L 50.691406 36.550781 C 50.695312 36.136719 50.800781 35.753906 51.007812 35.394531 C 51.214844 35.039062 51.496094 34.757812 51.855469 34.550781 L 51.855469 27.257812 L 44.882812 27.257812 L 44.882812 6.347656 L 61.148438 6.347656 L 61.148438 27.257812 L 54.179688 27.257812 L 54.179688 34.226562 C 54.5625 34.273438 54.917969 34.40625 55.234375 34.628906 C 55.554688 34.851562 55.800781 35.132812 55.980469 35.480469 L 56.5 36.550781 L 58.824219 36.550781 L 58.824219 34.226562 C 58.824219 33.921875 58.855469 33.621094 58.914062 33.320312 C 58.972656 33.019531 59.0625 32.730469 59.179688 32.449219 C 59.296875 32.167969 59.4375 31.898438 59.609375 31.644531 C 59.777344 31.390625 59.96875 31.15625 60.1875 30.941406 C 60.402344 30.726562 60.636719 30.53125 60.890625 30.363281 C 61.144531 30.195312 61.410156 30.050781 61.691406 29.933594 C 61.976562 29.816406 62.265625 29.730469 62.566406 29.667969 C 62.863281 29.609375 63.167969 29.578125 63.472656 29.578125 L 66.957031 29.578125 L 69.28125 34.226562 L 71.601562 29.578125 L 75.089844 29.578125 C 75.394531 29.578125 75.695312 29.609375 75.996094 29.667969 C 76.292969 29.730469 76.585938 29.816406 76.867188 29.933594 C 77.148438 30.050781 77.417969 30.195312 77.667969 30.363281 C 77.921875 30.53125 78.160156 30.726562 78.375 30.941406 C 78.589844 31.15625 78.78125 31.390625 78.953125 31.644531 C 79.121094 31.898438 79.265625 32.167969 79.382812 32.449219 C 79.496094 32.730469 79.585938 33.019531 79.644531 33.320312 C 79.707031 33.621094 79.734375 33.921875 79.734375 34.226562 L 79.734375 41.195312 L 76.25 41.195312 Z M 56.5 19.125 L 54.179688 19.125 C 54.179688 19.277344 54.148438 19.425781 54.089844 19.570312 C 54.03125 19.710938 53.945312 19.835938 53.835938 19.945312 C 53.730469 20.054688 53.601562 20.140625 53.460938 20.199219 C 53.320312 20.257812 53.171875 20.285156 53.015625 20.285156 C 52.863281 20.285156 52.714844 20.257812 52.570312 20.199219 C 52.429688 20.140625 52.304688 20.054688 52.195312 19.945312 C 52.085938 19.835938 52.003906 19.710938 51.941406 19.570312 C 51.882812 19.425781 51.855469 19.277344 51.855469 19.125 C 51.855469 18.96875 51.882812 18.824219 51.941406 18.679688 C 52.003906 18.539062 52.085938 18.414062 52.195312 18.304688 C 52.304688 18.195312 52.429688 18.109375 52.570312 18.050781 C 52.714844 17.992188 52.863281 17.964844 53.015625 17.964844 C 53.425781 17.960938 53.820312 17.886719 54.203125 17.746094 C 54.585938 17.601562 54.933594 17.398438 55.246094 17.132812 C 55.558594 16.871094 55.8125 16.558594 56.015625 16.203125 C 56.21875 15.851562 56.355469 15.472656 56.425781 15.066406 C 56.492188 14.664062 56.492188 14.261719 56.417969 13.859375 C 56.347656 13.457031 56.207031 13.082031 56.003906 12.726562 C 55.796875 12.375 55.539062 12.066406 55.226562 11.804688 C 54.910156 11.542969 54.5625 11.339844 54.179688 11.203125 L 54.179688 9.832031 L 51.855469 9.832031 L 51.855469 11.203125 C 51.515625 11.320312 51.203125 11.488281 50.917969 11.707031 C 50.628906 11.921875 50.382812 12.179688 50.171875 12.472656 C 49.964844 12.765625 49.808594 13.082031 49.699219 13.425781 C 49.585938 13.769531 49.53125 14.117188 49.53125 14.476562 L 51.855469 14.476562 C 51.855469 14.324219 51.882812 14.175781 51.941406 14.035156 C 52.003906 13.890625 52.085938 13.765625 52.195312 13.65625 C 52.304688 13.546875 52.429688 13.464844 52.570312 13.40625 C 52.714844 13.347656 52.863281 13.316406 53.015625 13.316406 C 53.171875 13.316406 53.320312 13.347656 53.460938 13.40625 C 53.601562 13.464844 53.730469 13.546875 53.835938 13.65625 C 53.945312 13.765625 54.03125 13.890625 54.089844 14.035156 C 54.148438 14.175781 54.179688 14.324219 54.179688 14.476562 C 54.179688 14.632812 54.148438 14.78125 54.089844 14.921875 C 54.03125 15.066406 53.945312 15.191406 53.835938 15.300781 C 53.730469 15.410156 53.601562 15.492188 53.460938 15.550781 C 53.320312 15.609375 53.171875 15.640625 53.015625 15.640625 C 52.609375 15.644531 52.210938 15.714844 51.828125 15.859375 C 51.445312 16 51.097656 16.203125 50.789062 16.46875 C 50.476562 16.734375 50.21875 17.042969 50.015625 17.398438 C 49.8125 17.753906 49.679688 18.132812 49.609375 18.535156 C 49.539062 18.9375 49.542969 19.339844 49.613281 19.742188 C 49.6875 20.144531 49.824219 20.523438 50.03125 20.875 C 50.234375 21.230469 50.496094 21.535156 50.808594 21.796875 C 51.121094 22.058594 51.46875 22.261719 51.855469 22.402344 L 51.855469 23.769531 L 54.179688 23.769531 L 54.179688 22.402344 C 54.515625 22.28125 54.828125 22.113281 55.117188 21.894531 C 55.402344 21.679688 55.652344 21.425781 55.859375 21.132812 C 56.066406 20.835938 56.226562 20.519531 56.335938 20.175781 C 56.445312 19.835938 56.5 19.484375 56.5 19.125 Z M 56.5 19.125 " fill-opacity="1" fill-rule="nonzero"/></g><path fill="#e71626" d="M 64.632812 23.769531 C 64.632812 24.078125 64.664062 24.378906 64.722656 24.679688 C 64.78125 24.976562 64.871094 25.269531 64.988281 25.550781 C 65.105469 25.832031 65.246094 26.097656 65.417969 26.351562 C 65.585938 26.605469 65.777344 26.839844 65.996094 27.058594 C 66.210938 27.273438 66.445312 27.464844 66.699219 27.636719 C 66.953125 27.804688 67.21875 27.949219 67.5 28.0625 C 67.785156 28.179688 68.074219 28.269531 68.375 28.328125 C 68.671875 28.386719 68.976562 28.417969 69.28125 28.417969 C 69.585938 28.417969 69.886719 28.386719 70.1875 28.328125 C 70.484375 28.269531 70.777344 28.179688 71.058594 28.0625 C 71.339844 27.949219 71.609375 27.804688 71.863281 27.636719 C 72.113281 27.464844 72.351562 27.273438 72.566406 27.058594 C 72.78125 26.839844 72.972656 26.605469 73.144531 26.351562 C 73.3125 26.097656 73.457031 25.832031 73.574219 25.550781 C 73.691406 25.269531 73.777344 24.976562 73.835938 24.679688 C 73.898438 24.378906 73.925781 24.078125 73.925781 23.769531 C 73.925781 23.464844 73.898438 23.164062 73.835938 22.863281 C 73.777344 22.566406 73.691406 22.273438 73.574219 21.992188 C 73.457031 21.710938 73.3125 21.445312 73.144531 21.191406 C 72.972656 20.9375 72.78125 20.703125 72.566406 20.484375 C 72.351562 20.269531 72.113281 20.078125 71.863281 19.90625 C 71.609375 19.738281 71.339844 19.59375 71.058594 19.476562 C 70.777344 19.363281 70.484375 19.273438 70.1875 19.214844 C 69.886719 19.15625 69.585938 19.125 69.28125 19.125 C 68.976562 19.125 68.671875 19.15625 68.375 19.214844 C 68.074219 19.273438 67.785156 19.363281 67.5 19.476562 C 67.21875 19.59375 66.953125 19.738281 66.699219 19.90625 C 66.445312 20.078125 66.210938 20.269531 65.996094 20.484375 C 65.777344 20.703125 65.585938 20.9375 65.417969 21.191406 C 65.246094 21.445312 65.105469 21.710938 64.988281 21.992188 C 64.871094 22.273438 64.78125 22.566406 64.722656 22.863281 C 64.664062 23.164062 64.632812 23.464844 64.632812 23.769531 Z M 64.632812 23.769531 " fill-opacity="1" fill-rule="nonzero"/></svg>