<svg xmlns="http://www.w3.org/2000/svg" xmlns:xlink="http://www.w3.org/1999/xlink" width="375" zoomAndPan="magnify" viewBox="0 0 281.25 275.999989" height="368" preserveAspectRatio="xMidYMid meet" version="1.0"><defs><clipPath id="5ac7234317"><path d="M 23.253906 141 L 137 141 L 137 255 L 23.253906 255 Z M 23.253906 141 " clip-rule="nonzero"/></clipPath><clipPath id="b7b3d7de68"><path d="M 144 20.941406 L 257.273438 20.941406 L 257.273438 135 L 144 135 Z M 144 20.941406 " clip-rule="nonzero"/></clipPath></defs><g clip-path="url(#5ac7234317)"><path fill="#e71626" d="M 38.351562 217.21875 L 49.675781 217.21875 L 57.222656 232.316406 L 64.773438 217.21875 L 76.097656 217.21875 C 77.089844 217.21875 78.070312 217.316406 79.042969 217.507812 C 80.015625 217.703125 80.957031 217.988281 81.875 218.367188 C 82.789062 218.746094 83.660156 219.210938 84.484375 219.761719 C 85.308594 220.3125 86.070312 220.9375 86.773438 221.640625 C 87.472656 222.339844 88.097656 223.105469 88.648438 223.929688 C 89.199219 224.753906 89.667969 225.621094 90.046875 226.539062 C 90.425781 227.453125 90.710938 228.398438 90.90625 229.371094 C 91.097656 230.34375 91.195312 231.324219 91.195312 232.316406 L 91.195312 239.867188 L 98.742188 239.867188 L 100.441406 236.507812 C 100.71875 235.941406 101.058594 235.417969 101.460938 234.9375 C 101.867188 234.457031 102.324219 234.035156 102.835938 233.667969 C 103.347656 233.304688 103.894531 233.007812 104.480469 232.777344 C 105.066406 232.546875 105.667969 232.394531 106.292969 232.316406 L 106.292969 209.667969 L 83.644531 209.667969 L 83.644531 141.726562 L 136.488281 141.726562 L 136.488281 209.667969 L 113.84375 209.667969 L 113.84375 233.375 C 114.414062 233.703125 114.929688 234.101562 115.398438 234.566406 C 115.863281 235.03125 116.261719 235.546875 116.59375 236.117188 C 116.925781 236.6875 117.175781 237.289062 117.351562 237.925781 C 117.523438 238.558594 117.613281 239.207031 117.617188 239.867188 L 117.617188 254.964844 L 79.871094 254.964844 L 79.871094 236.089844 C 79.871094 235.589844 79.773438 235.109375 79.582031 234.644531 C 79.390625 234.183594 79.121094 233.777344 78.765625 233.421875 C 78.410156 233.066406 78.003906 232.796875 77.542969 232.605469 C 77.078125 232.414062 76.597656 232.316406 76.097656 232.316406 C 75.597656 232.316406 75.113281 232.414062 74.652344 232.605469 C 74.191406 232.796875 73.78125 233.066406 73.425781 233.421875 C 73.074219 233.777344 72.800781 234.183594 72.609375 234.644531 C 72.417969 235.109375 72.320312 235.589844 72.320312 236.089844 L 72.320312 254.964844 L 42.125 254.964844 L 42.125 236.089844 C 42.125 235.589844 42.03125 235.109375 41.839844 234.644531 C 41.648438 234.183594 41.375 233.777344 41.019531 233.421875 C 40.667969 233.066406 40.257812 232.796875 39.796875 232.605469 C 39.332031 232.414062 38.851562 232.316406 38.351562 232.316406 C 37.851562 232.316406 37.371094 232.414062 36.90625 232.605469 C 36.445312 232.796875 36.035156 233.066406 35.683594 233.421875 C 35.328125 233.777344 35.054688 234.183594 34.863281 234.644531 C 34.671875 235.109375 34.578125 235.589844 34.578125 236.089844 L 34.578125 254.964844 L 23.253906 254.964844 L 23.253906 232.316406 C 23.253906 231.324219 23.351562 230.34375 23.542969 229.371094 C 23.738281 228.398438 24.023438 227.453125 24.402344 226.539062 C 24.78125 225.621094 25.246094 224.753906 25.796875 223.929688 C 26.347656 223.105469 26.972656 222.339844 27.675781 221.640625 C 28.375 220.9375 29.140625 220.3125 29.964844 219.761719 C 30.789062 219.210938 31.65625 218.746094 32.574219 218.367188 C 33.488281 217.988281 34.433594 217.703125 35.40625 217.507812 C 36.378906 217.316406 37.359375 217.21875 38.351562 217.21875 Z M 121.390625 183.246094 L 113.84375 183.246094 C 113.84375 183.75 113.746094 184.230469 113.554688 184.691406 C 113.363281 185.15625 113.089844 185.5625 112.734375 185.917969 C 112.382812 186.269531 111.972656 186.542969 111.511719 186.734375 C 111.050781 186.925781 110.566406 187.023438 110.066406 187.023438 C 109.566406 187.023438 109.085938 186.925781 108.621094 186.734375 C 108.160156 186.542969 107.753906 186.269531 107.398438 185.917969 C 107.042969 185.5625 106.773438 185.15625 106.582031 184.691406 C 106.386719 184.230469 106.292969 183.75 106.292969 183.246094 C 106.292969 182.746094 106.386719 182.265625 106.582031 181.804688 C 106.773438 181.339844 107.042969 180.933594 107.398438 180.578125 C 107.753906 180.226562 108.160156 179.953125 108.621094 179.761719 C 109.085938 179.570312 109.566406 179.472656 110.066406 179.472656 C 110.726562 179.46875 111.378906 179.40625 112.027344 179.285156 C 112.675781 179.167969 113.308594 178.992188 113.925781 178.761719 C 114.542969 178.535156 115.136719 178.253906 115.703125 177.917969 C 116.273438 177.585938 116.808594 177.207031 117.3125 176.78125 C 117.8125 176.351562 118.273438 175.886719 118.695312 175.378906 C 119.117188 174.871094 119.488281 174.332031 119.816406 173.761719 C 120.140625 173.1875 120.417969 172.59375 120.636719 171.972656 C 120.859375 171.351562 121.027344 170.714844 121.140625 170.066406 C 121.25 169.417969 121.304688 168.765625 121.304688 168.105469 C 121.300781 167.445312 121.242188 166.792969 121.125 166.144531 C 121.007812 165.496094 120.835938 164.863281 120.609375 164.242188 C 120.378906 163.625 120.101562 163.03125 119.769531 162.460938 C 119.441406 161.890625 119.0625 161.355469 118.636719 160.851562 C 118.210938 160.347656 117.746094 159.882812 117.242188 159.460938 C 116.738281 159.039062 116.199219 158.664062 115.628906 158.335938 C 115.054688 158.007812 114.460938 157.730469 113.84375 157.503906 L 113.84375 153.050781 L 106.292969 153.050781 L 106.292969 157.503906 C 105.191406 157.894531 104.175781 158.441406 103.242188 159.144531 C 102.308594 159.847656 101.507812 160.679688 100.832031 161.628906 C 100.15625 162.582031 99.640625 163.617188 99.28125 164.730469 C 98.925781 165.839844 98.746094 166.980469 98.742188 168.148438 L 106.292969 168.148438 C 106.292969 167.648438 106.386719 167.167969 106.582031 166.703125 C 106.773438 166.242188 107.042969 165.835938 107.398438 165.480469 C 107.753906 165.125 108.160156 164.855469 108.621094 164.664062 C 109.085938 164.472656 109.566406 164.375 110.066406 164.375 C 110.566406 164.375 111.050781 164.472656 111.511719 164.664062 C 111.972656 164.855469 112.382812 165.125 112.734375 165.480469 C 113.089844 165.835938 113.363281 166.242188 113.554688 166.703125 C 113.746094 167.167969 113.84375 167.648438 113.84375 168.148438 C 113.84375 168.648438 113.746094 169.132812 113.554688 169.59375 C 113.363281 170.054688 113.089844 170.464844 112.734375 170.820312 C 112.382812 171.171875 111.972656 171.445312 111.511719 171.636719 C 111.050781 171.828125 110.566406 171.925781 110.066406 171.925781 C 109.410156 171.929688 108.753906 171.992188 108.105469 172.109375 C 107.460938 172.230469 106.828125 172.402344 106.207031 172.632812 C 105.589844 172.863281 105 173.144531 104.429688 173.476562 C 103.863281 173.8125 103.324219 174.191406 102.824219 174.617188 C 102.320312 175.042969 101.859375 175.511719 101.441406 176.019531 C 101.019531 176.523438 100.644531 177.0625 100.320312 177.636719 C 99.992188 178.210938 99.71875 178.804688 99.496094 179.425781 C 99.273438 180.046875 99.105469 180.679688 98.996094 181.328125 C 98.882812 181.980469 98.828125 182.632812 98.832031 183.292969 C 98.835938 183.949219 98.894531 184.605469 99.011719 185.253906 C 99.128906 185.902344 99.300781 186.535156 99.527344 187.152344 C 99.753906 187.773438 100.03125 188.367188 100.363281 188.933594 C 100.695312 189.503906 101.074219 190.042969 101.496094 190.546875 C 101.921875 191.050781 102.386719 191.511719 102.890625 191.933594 C 103.398438 192.359375 103.9375 192.734375 104.507812 193.0625 C 105.078125 193.390625 105.671875 193.667969 106.292969 193.890625 L 106.292969 198.34375 L 113.84375 198.34375 L 113.84375 193.890625 C 114.941406 193.503906 115.960938 192.957031 116.890625 192.25 C 117.824219 191.546875 118.628906 190.71875 119.304688 189.765625 C 119.980469 188.8125 120.496094 187.78125 120.851562 186.667969 C 121.207031 185.554688 121.386719 184.414062 121.390625 183.246094 Z M 121.390625 183.246094 " fill-opacity="1" fill-rule="nonzero"/></g><path fill="#e71626" d="M 42.125 198.34375 C 42.125 199.335938 42.222656 200.320312 42.414062 201.292969 C 42.609375 202.261719 42.894531 203.207031 43.273438 204.125 C 43.65625 205.039062 44.121094 205.910156 44.671875 206.734375 C 45.222656 207.558594 45.847656 208.320312 46.546875 209.023438 C 47.25 209.722656 48.011719 210.347656 48.835938 210.898438 C 49.660156 211.449219 50.53125 211.914062 51.445312 212.292969 C 52.363281 212.675781 53.304688 212.960938 54.277344 213.152344 C 55.25 213.347656 56.234375 213.445312 57.222656 213.445312 C 58.214844 213.445312 59.195312 213.347656 60.167969 213.152344 C 61.140625 212.960938 62.085938 212.675781 63 212.292969 C 63.917969 211.914062 64.789062 211.449219 65.613281 210.898438 C 66.4375 210.347656 67.199219 209.722656 67.898438 209.023438 C 68.601562 208.320312 69.226562 207.558594 69.777344 206.734375 C 70.328125 205.910156 70.792969 205.039062 71.171875 204.125 C 71.550781 203.207031 71.839844 202.261719 72.03125 201.292969 C 72.226562 200.320312 72.320312 199.335938 72.320312 198.34375 C 72.320312 197.355469 72.226562 196.371094 72.03125 195.398438 C 71.839844 194.429688 71.550781 193.484375 71.171875 192.566406 C 70.792969 191.652344 70.328125 190.78125 69.777344 189.957031 C 69.226562 189.132812 68.601562 188.371094 67.898438 187.667969 C 67.199219 186.96875 66.4375 186.34375 65.613281 185.792969 C 64.789062 185.242188 63.917969 184.777344 63 184.398438 C 62.085938 184.015625 61.140625 183.730469 60.167969 183.539062 C 59.195312 183.34375 58.214844 183.246094 57.222656 183.246094 C 56.234375 183.246094 55.25 183.34375 54.277344 183.539062 C 53.304688 183.730469 52.363281 184.015625 51.445312 184.398438 C 50.53125 184.777344 49.660156 185.242188 48.835938 185.792969 C 48.011719 186.34375 47.25 186.96875 46.546875 187.667969 C 45.847656 188.371094 45.222656 189.132812 44.671875 189.957031 C 44.121094 190.78125 43.65625 191.652344 43.273438 192.566406 C 42.894531 193.484375 42.609375 194.429688 42.414062 195.398438 C 42.222656 196.371094 42.125 197.355469 42.125 198.34375 Z M 42.125 198.34375 " fill-opacity="1" fill-rule="nonzero"/><g clip-path="url(#b7b3d7de68)"><path fill="#e71626" d="M 245.949219 115.304688 C 245.949219 114.804688 245.855469 114.324219 245.664062 113.863281 C 245.472656 113.398438 245.199219 112.992188 244.84375 112.636719 C 244.492188 112.285156 244.082031 112.011719 243.621094 111.820312 C 243.15625 111.628906 242.675781 111.53125 242.175781 111.53125 C 241.675781 111.53125 241.195312 111.628906 240.730469 111.820312 C 240.269531 112.011719 239.859375 112.285156 239.507812 112.636719 C 239.152344 112.992188 238.878906 113.398438 238.6875 113.863281 C 238.496094 114.324219 238.402344 114.804688 238.402344 115.304688 L 238.402344 134.179688 L 208.203125 134.179688 L 208.203125 115.304688 C 208.203125 114.804688 208.109375 114.324219 207.917969 113.863281 C 207.726562 113.398438 207.453125 112.992188 207.097656 112.636719 C 206.746094 112.285156 206.335938 112.011719 205.875 111.820312 C 205.414062 111.628906 204.929688 111.53125 204.429688 111.53125 C 203.929688 111.53125 203.449219 111.628906 202.984375 111.820312 C 202.523438 112.011719 202.117188 112.285156 201.761719 112.636719 C 201.40625 112.992188 201.132812 113.398438 200.941406 113.863281 C 200.75 114.324219 200.65625 114.804688 200.65625 115.304688 L 200.65625 134.179688 L 162.910156 134.179688 L 162.910156 119.082031 C 162.914062 118.421875 163.003906 117.773438 163.175781 117.140625 C 163.351562 116.503906 163.601562 115.902344 163.933594 115.332031 C 164.265625 114.761719 164.664062 114.246094 165.128906 113.78125 C 165.597656 113.316406 166.113281 112.917969 166.683594 112.589844 L 166.683594 88.882812 L 144.039062 88.882812 L 144.039062 20.941406 L 196.882812 20.941406 L 196.882812 88.882812 L 174.234375 88.882812 L 174.234375 111.53125 C 174.851562 111.605469 175.453125 111.75 176.035156 111.972656 C 176.613281 112.191406 177.160156 112.480469 177.671875 112.835938 C 178.179688 113.191406 178.640625 113.605469 179.050781 114.074219 C 179.457031 114.542969 179.804688 115.054688 180.085938 115.609375 L 181.785156 119.082031 L 189.332031 119.082031 L 189.332031 111.53125 C 189.332031 110.539062 189.429688 109.558594 189.621094 108.585938 C 189.816406 107.613281 190.101562 106.667969 190.480469 105.753906 C 190.859375 104.839844 191.324219 103.96875 191.875 103.144531 C 192.425781 102.320312 193.054688 101.558594 193.753906 100.855469 C 194.457031 100.15625 195.21875 99.527344 196.042969 98.976562 C 196.867188 98.425781 197.738281 97.960938 198.652344 97.582031 C 199.570312 97.203125 200.511719 96.917969 201.484375 96.722656 C 202.457031 96.53125 203.4375 96.433594 204.429688 96.433594 L 215.753906 96.433594 L 223.304688 111.53125 L 230.851562 96.433594 L 242.175781 96.433594 C 243.167969 96.433594 244.148438 96.53125 245.121094 96.722656 C 246.09375 96.917969 247.039062 97.203125 247.953125 97.582031 C 248.871094 97.960938 249.738281 98.425781 250.5625 98.976562 C 251.386719 99.527344 252.152344 100.15625 252.851562 100.855469 C 253.550781 101.558594 254.179688 102.320312 254.730469 103.144531 C 255.28125 103.96875 255.746094 104.839844 256.125 105.753906 C 256.503906 106.667969 256.789062 107.613281 256.984375 108.585938 C 257.175781 109.558594 257.273438 110.539062 257.273438 111.53125 L 257.273438 134.179688 L 245.949219 134.179688 Z M 181.785156 62.460938 L 174.234375 62.460938 C 174.234375 62.964844 174.136719 63.445312 173.945312 63.90625 C 173.753906 64.371094 173.484375 64.777344 173.128906 65.132812 C 172.773438 65.484375 172.367188 65.757812 171.902344 65.949219 C 171.441406 66.140625 170.960938 66.238281 170.460938 66.238281 C 169.960938 66.238281 169.476562 66.140625 169.015625 65.949219 C 168.554688 65.757812 168.144531 65.484375 167.789062 65.132812 C 167.4375 64.777344 167.164062 64.371094 166.972656 63.90625 C 166.78125 63.445312 166.683594 62.964844 166.683594 62.460938 C 166.683594 61.960938 166.78125 61.480469 166.972656 61.019531 C 167.164062 60.554688 167.4375 60.148438 167.789062 59.792969 C 168.144531 59.441406 168.554688 59.167969 169.015625 58.976562 C 169.476562 58.785156 169.960938 58.6875 170.460938 58.6875 C 171.117188 58.683594 171.773438 58.621094 172.417969 58.5 C 173.066406 58.382812 173.699219 58.207031 174.316406 57.980469 C 174.9375 57.75 175.527344 57.46875 176.097656 57.132812 C 176.664062 56.800781 177.199219 56.421875 177.703125 55.996094 C 178.207031 55.570312 178.667969 55.101562 179.085938 54.59375 C 179.507812 54.085938 179.882812 53.546875 180.207031 52.976562 C 180.535156 52.402344 180.808594 51.808594 181.03125 51.1875 C 181.253906 50.566406 181.421875 49.933594 181.53125 49.28125 C 181.644531 48.632812 181.699219 47.980469 181.695312 47.320312 C 181.691406 46.660156 181.632812 46.007812 181.515625 45.359375 C 181.398438 44.710938 181.226562 44.078125 181 43.460938 C 180.773438 42.839844 180.492188 42.246094 180.164062 41.675781 C 179.832031 41.105469 179.453125 40.570312 179.03125 40.066406 C 178.605469 39.5625 178.140625 39.101562 177.632812 38.675781 C 177.128906 38.253906 176.589844 37.878906 176.019531 37.550781 C 175.449219 37.222656 174.855469 36.945312 174.234375 36.71875 L 174.234375 32.265625 L 166.683594 32.265625 L 166.683594 36.71875 C 165.582031 37.109375 164.566406 37.65625 163.636719 38.359375 C 162.703125 39.066406 161.898438 39.894531 161.222656 40.847656 C 160.546875 41.796875 160.03125 42.832031 159.675781 43.945312 C 159.320312 45.054688 159.140625 46.195312 159.136719 47.363281 L 166.683594 47.363281 C 166.683594 46.863281 166.78125 46.382812 166.972656 45.921875 C 167.164062 45.457031 167.4375 45.050781 167.789062 44.695312 C 168.144531 44.34375 168.554688 44.070312 169.015625 43.878906 C 169.476562 43.6875 169.960938 43.589844 170.460938 43.589844 C 170.960938 43.589844 171.441406 43.6875 171.902344 43.878906 C 172.367188 44.070312 172.773438 44.34375 173.128906 44.695312 C 173.484375 45.050781 173.753906 45.457031 173.945312 45.921875 C 174.136719 46.382812 174.234375 46.863281 174.234375 47.363281 C 174.234375 47.867188 174.136719 48.347656 173.945312 48.808594 C 173.753906 49.273438 173.484375 49.679688 173.128906 50.035156 C 172.773438 50.386719 172.367188 50.660156 171.902344 50.851562 C 171.441406 51.042969 170.960938 51.140625 170.460938 51.140625 C 169.800781 51.144531 169.148438 51.207031 168.5 51.324219 C 167.851562 51.445312 167.21875 51.621094 166.601562 51.847656 C 165.984375 52.078125 165.390625 52.359375 164.820312 52.691406 C 164.253906 53.027344 163.71875 53.40625 163.214844 53.832031 C 162.714844 54.257812 162.253906 54.726562 161.832031 55.234375 C 161.410156 55.738281 161.039062 56.28125 160.710938 56.851562 C 160.386719 57.425781 160.109375 58.019531 159.886719 58.640625 C 159.664062 59.261719 159.5 59.894531 159.386719 60.546875 C 159.277344 61.195312 159.222656 61.847656 159.222656 62.507812 C 159.226562 63.167969 159.285156 63.820312 159.402344 64.46875 C 159.519531 65.117188 159.691406 65.75 159.917969 66.367188 C 160.144531 66.988281 160.425781 67.582031 160.757812 68.152344 C 161.085938 68.71875 161.464844 69.257812 161.890625 69.761719 C 162.3125 70.265625 162.78125 70.726562 163.285156 71.148438 C 163.789062 71.574219 164.328125 71.949219 164.898438 72.277344 C 165.46875 72.605469 166.066406 72.882812 166.683594 73.105469 L 166.683594 77.5625 L 174.234375 77.5625 L 174.234375 73.105469 C 175.335938 72.71875 176.351562 72.171875 177.285156 71.46875 C 178.214844 70.761719 179.019531 69.933594 179.695312 68.980469 C 180.371094 68.027344 180.886719 66.996094 181.242188 65.882812 C 181.601562 64.769531 181.78125 63.632812 181.785156 62.460938 Z M 181.785156 62.460938 " fill-opacity="1" fill-rule="nonzero"/></g><path fill="#e71626" d="M 208.203125 77.5625 C 208.203125 78.550781 208.300781 79.535156 208.496094 80.507812 C 208.6875 81.480469 208.976562 82.421875 209.355469 83.339844 C 209.734375 84.253906 210.199219 85.125 210.75 85.949219 C 211.300781 86.773438 211.925781 87.535156 212.628906 88.238281 C 213.328125 88.9375 214.089844 89.5625 214.914062 90.113281 C 215.738281 90.664062 216.609375 91.128906 217.523438 91.507812 C 218.441406 91.890625 219.386719 92.175781 220.359375 92.367188 C 221.328125 92.5625 222.3125 92.660156 223.304688 92.660156 C 224.292969 92.660156 225.277344 92.5625 226.25 92.367188 C 227.222656 92.175781 228.164062 91.890625 229.082031 91.507812 C 229.996094 91.128906 230.867188 90.664062 231.691406 90.113281 C 232.515625 89.5625 233.277344 88.9375 233.980469 88.238281 C 234.679688 87.535156 235.304688 86.773438 235.855469 85.949219 C 236.40625 85.125 236.871094 84.253906 237.25 83.339844 C 237.632812 82.421875 237.917969 81.480469 238.109375 80.507812 C 238.304688 79.535156 238.402344 78.550781 238.402344 77.5625 C 238.402344 76.570312 238.304688 75.585938 238.109375 74.617188 C 237.917969 73.644531 237.632812 72.699219 237.25 71.78125 C 236.871094 70.867188 236.40625 69.996094 235.855469 69.171875 C 235.304688 68.347656 234.679688 67.585938 233.980469 66.886719 C 233.277344 66.183594 232.515625 65.558594 231.691406 65.007812 C 230.867188 64.457031 229.996094 63.992188 229.082031 63.613281 C 228.164062 63.234375 227.222656 62.945312 226.25 62.753906 C 225.277344 62.558594 224.292969 62.460938 223.304688 62.460938 C 222.3125 62.460938 221.328125 62.558594 220.359375 62.753906 C 219.386719 62.945312 218.441406 63.234375 217.523438 63.613281 C 216.609375 63.992188 215.738281 64.457031 214.914062 65.007812 C 214.089844 65.558594 213.328125 66.183594 212.628906 66.886719 C 211.925781 67.585938 211.300781 68.347656 210.75 69.171875 C 210.199219 69.996094 209.734375 70.867188 209.355469 71.78125 C 208.976562 72.699219 208.6875 73.644531 208.496094 74.617188 C 208.300781 75.585938 208.203125 76.570312 208.203125 77.5625 Z M 208.203125 77.5625 " fill-opacity="1" fill-rule="nonzero"/></svg>