<svg fill="none" height="30" viewBox="0 0 40 40" width="40" xmlns="http://www.w3.org/2000/svg"><circle cx="20" cy="20" fill="#ff5e53" r="20"/><path d="m16.2027 6.49438c.6592-.65917 1.7297-.65917 2.3889 0l6.3281 6.32812c.6592.6592.6592 1.7297 0 2.3889l-.8438.8437c-.6592.6592-1.7297.6592-2.3888 0l-.211-.2109-5.632 5.6267.2109.211c.6592.6592.6592 1.7297 0 2.3889l-.8437.8437c-.6592.6592-1.7297.6592-2.3889 0l-6.32811-6.3281c-.65918-.6592-.65918-1.7297 0-2.3889l.84375-.8437c.65918-.6592 1.72968-.6592 2.38886 0l.21094.2109 5.63206-5.63203-.211-.21094c-.6591-.65918-.6591-1.72969 0-2.38887l.8438-.84375zm8.0156 15.18752c.6592-.6592 1.7297-.6592 2.3889 0l5.9062 5.9062c.6592.6592.6592 1.7297 0 2.3889l-2.5312 2.5313c-.6592.6591-1.7297.6591-2.3889 0l-5.9062-5.9063c-.6592-.6592-.6592-1.7297 0-2.3889l.0738-.0738-3.1008-3.0955 2.3889-2.3889 3.0955 3.0955.0738-.0738z" fill="#fff"/></svg>