<svg width="45" height="45" viewBox="0 0 45 45" fill="none" xmlns="http://www.w3.org/2000/svg">
<path d="M34.0875 18.75L30.9 9.975C30.6361 9.25144 30.1567 8.62622 29.5264 8.18366C28.8961 7.74109 28.1452 7.50248 27.375 7.5H24.375C23.3438 7.5 22.5 8.34375 22.5 9.375C22.5 10.4062 23.3438 11.25 24.375 11.25H27.375L30.1125 18.75H21.0938L20.4188 16.875H20.5875C21.6187 16.875 22.4625 16.0312 22.4625 15C22.4625 13.9688 21.6187 13.125 20.5875 13.125H15C13.9688 13.125 13.125 13.9688 13.125 15C13.125 16.0312 13.9688 16.875 15 16.875H16.4062L19.8187 26.25H18.5625C17.7375 22.0688 14.2312 18.975 9.84375 18.7688C4.59375 18.5063 0 22.875 0 28.125C0 33.375 4.125 37.5 9.375 37.5C13.9875 37.5 17.7188 34.3312 18.5625 30H26.4375C27.2625 34.1812 30.7687 37.275 35.1562 37.4812C40.4062 37.725 45 33.375 45 28.1062C45 22.8562 40.875 18.7312 35.625 18.7312H34.0875V18.75ZM14.6625 30C13.875 32.3062 11.6625 33.9 9 33.7312C6.20625 33.5625 3.88125 31.2 3.75 28.3875C3.61875 25.1063 6.13125 22.5 9.375 22.5C11.8687 22.5 13.9125 24.0562 14.6625 26.25H11.25C10.2188 26.25 9.375 27.0938 9.375 28.125C9.375 29.1562 10.2188 30 11.25 30H14.6625ZM26.4375 26.25H23.8125L22.4438 22.5H28.125C27.3 23.5875 26.7 24.8438 26.4375 26.25ZM35.4 33.75C32.5125 33.6375 30.075 31.1812 30 28.275C29.9625 26.475 30.7312 24.9 31.9687 23.85L33.1312 27.0375C33.4875 28.0125 34.5563 28.5188 35.5312 28.1625C36.5063 27.8063 37.0125 26.7375 36.6562 25.7625L35.475 22.5188L35.4938 22.5C38.7188 22.425 41.2687 24.9188 41.2687 28.125C41.2721 28.8854 41.1208 29.6386 40.8239 30.3387C40.527 31.0387 40.0908 31.6711 39.5418 32.1973C38.9928 32.7235 38.3426 33.1325 37.6305 33.3994C36.9185 33.6663 36.1596 33.7856 35.4 33.75Z" fill="#E71626"/>
</svg>
