<svg width="45" height="45" viewBox="0 0 45 45" fill="none" xmlns="http://www.w3.org/2000/svg">
<path d="M26.7188 14.0625H36.5625V16.875H26.7188V14.0625ZM26.7188 21.0938H36.5625V23.9062H26.7188V21.0938ZM26.7188 28.125H36.5625V30.9375H26.7188V28.125ZM8.4375 14.0625H18.2812V16.875H8.4375V14.0625ZM8.4375 21.0938H18.2812V23.9062H8.4375V21.0938ZM8.4375 28.125H18.2812V30.9375H8.4375V28.125Z" fill="white"/>
<path d="M39.375 7.03125H5.625C4.87931 7.03199 4.16437 7.32855 3.63708 7.85583C3.1098 8.38312 2.81324 9.09806 2.8125 9.84375V35.1562C2.81324 35.9019 3.1098 36.6169 3.63708 37.1442C4.16437 37.6715 4.87931 37.968 5.625 37.9688H39.375C40.1207 37.968 40.8356 37.6715 41.3629 37.1442C41.8902 36.6169 42.1868 35.9019 42.1875 35.1562V9.84375C42.1868 9.09806 41.8902 8.38312 41.3629 7.85583C40.8356 7.32855 40.1207 7.03199 39.375 7.03125ZM5.625 9.84375H21.0938V35.1562H5.625V9.84375ZM23.9062 35.1562V9.84375H39.375V35.1562H23.9062Z" fill="white"/>
</svg>
