<svg width="45" height="36" viewBox="0 0 45 36" fill="none" xmlns="http://www.w3.org/2000/svg">
<g clip-path="url(#clip0_196_230)">
<path d="M14.8921 0C15.4405 0 15.8976 0.400781 16.0663 0.928125C16.9312 3.64922 19.4835 5.625 22.4999 5.625C25.5163 5.625 28.0687 3.64922 28.9335 0.928125C29.1023 0.400781 29.5593 0 30.1077 0H30.9937C32.5757 0 34.1015 0.555469 35.3179 1.56797L44.1913 8.95781C44.6554 9.34453 44.9437 9.90703 44.9929 10.5117C45.0421 11.1164 44.8452 11.7141 44.4444 12.1711L40.5069 16.6711C39.7054 17.5922 38.3132 17.6977 37.371 16.9172L33.7499 13.9008V31.5C33.7499 33.982 31.7319 36 29.2499 36H15.7499C13.2679 36 11.2499 33.982 11.2499 31.5V13.9008L7.62881 16.9172C6.69366 17.6977 5.30147 17.5922 4.49287 16.6711L0.555375 12.1711C0.154594 11.7141 -0.0422815 11.1164 0.00693727 10.5117C0.056156 9.90703 0.344437 9.34453 0.8085 8.95781L9.68194 1.56797C10.8983 0.555469 12.4241 0 14.0062 0H14.8921Z" fill="white"/>
</g>
<defs>
<clipPath id="clip0_196_230">
<rect width="45" height="36" fill="white"/>
</clipPath>
</defs>
</svg>
