<svg width="137" height="30" viewBox="0 0 137 30" fill="none" xmlns="http://www.w3.org/2000/svg">
<path d="M41.232 22.152C41.896 22.152 42.468 22.076 42.948 21.924C43.428 21.772 43.82 21.56 44.124 21.288C44.436 21.008 44.664 20.68 44.808 20.304C44.952 19.92 45.024 19.5 45.024 19.044C45.024 18.156 44.708 17.456 44.076 16.944C43.444 16.424 42.496 16.164 41.232 16.164H37.512V22.152H41.232ZM37.512 8.64V14.508H40.584C41.24 14.508 41.808 14.436 42.288 14.292C42.776 14.148 43.176 13.948 43.488 13.692C43.808 13.436 44.044 13.128 44.196 12.768C44.348 12.4 44.424 12 44.424 11.568C44.424 10.552 44.12 9.812 43.512 9.348C42.904 8.876 41.96 8.64 40.68 8.64H37.512ZM40.68 6.804C41.736 6.804 42.644 6.908 43.404 7.116C44.172 7.324 44.8 7.62 45.288 8.004C45.784 8.388 46.148 8.86 46.38 9.42C46.612 9.972 46.728 10.596 46.728 11.292C46.728 11.716 46.66 12.124 46.524 12.516C46.396 12.9 46.2 13.26 45.936 13.596C45.672 13.932 45.336 14.236 44.928 14.508C44.528 14.772 44.056 14.988 43.512 15.156C44.776 15.396 45.724 15.848 46.356 16.512C46.996 17.168 47.316 18.032 47.316 19.104C47.316 19.832 47.18 20.496 46.908 21.096C46.644 21.696 46.252 22.212 45.732 22.644C45.22 23.076 44.588 23.412 43.836 23.652C43.084 23.884 42.228 24 41.268 24H35.196V6.804H40.68ZM52.2058 11.844V24H50.0698V11.844H52.2058ZM52.6618 8.028C52.6618 8.236 52.6178 8.432 52.5298 8.616C52.4498 8.792 52.3378 8.952 52.1938 9.096C52.0578 9.232 51.8938 9.34 51.7018 9.42C51.5178 9.5 51.3218 9.54 51.1138 9.54C50.9058 9.54 50.7098 9.5 50.5258 9.42C50.3498 9.34 50.1938 9.232 50.0578 9.096C49.9218 8.952 49.8138 8.792 49.7338 8.616C49.6538 8.432 49.6138 8.236 49.6138 8.028C49.6138 7.82 49.6538 7.624 49.7338 7.44C49.8138 7.248 49.9218 7.084 50.0578 6.948C50.1938 6.804 50.3498 6.692 50.5258 6.612C50.7098 6.532 50.9058 6.492 51.1138 6.492C51.3218 6.492 51.5178 6.532 51.7018 6.612C51.8938 6.692 52.0578 6.804 52.1938 6.948C52.3378 7.084 52.4498 7.248 52.5298 7.44C52.6178 7.624 52.6618 7.82 52.6618 8.028ZM63.6354 14.736C63.2354 14.2 62.8034 13.828 62.3394 13.62C61.8754 13.404 61.3554 13.296 60.7794 13.296C59.6514 13.296 58.7834 13.7 58.1754 14.508C57.5674 15.316 57.2634 16.468 57.2634 17.964C57.2634 18.756 57.3314 19.436 57.4674 20.004C57.6034 20.564 57.8034 21.028 58.0674 21.396C58.3314 21.756 58.6554 22.02 59.0394 22.188C59.4234 22.356 59.8594 22.44 60.3474 22.44C61.0514 22.44 61.6634 22.28 62.1834 21.96C62.7114 21.64 63.1954 21.188 63.6354 20.604V14.736ZM65.7714 6.324V24H64.4994C64.1954 24 64.0034 23.852 63.9234 23.556L63.7314 22.08C63.2114 22.704 62.6194 23.208 61.9554 23.592C61.2914 23.976 60.5234 24.168 59.6514 24.168C58.9554 24.168 58.3234 24.036 57.7554 23.772C57.1874 23.5 56.7034 23.104 56.3034 22.584C55.9034 22.064 55.5954 21.416 55.3794 20.64C55.1634 19.864 55.0554 18.972 55.0554 17.964C55.0554 17.068 55.1754 16.236 55.4154 15.468C55.6554 14.692 55.9994 14.02 56.4474 13.452C56.8954 12.884 57.4434 12.44 58.0914 12.12C58.7474 11.792 59.4834 11.628 60.2994 11.628C61.0434 11.628 61.6794 11.756 62.2074 12.012C62.7434 12.26 63.2194 12.608 63.6354 13.056V6.324H65.7714ZM69.1451 24V11.844H70.4291C70.7331 11.844 70.9211 11.992 70.9931 12.288L71.1491 13.536C71.5971 12.984 72.1011 12.532 72.6611 12.18C73.2211 11.828 73.8691 11.652 74.6051 11.652C75.4211 11.652 76.0811 11.88 76.5851 12.336C77.0971 12.792 77.4651 13.408 77.6891 14.184C77.8651 13.744 78.0891 13.364 78.3611 13.044C78.6411 12.724 78.9531 12.46 79.2971 12.252C79.6411 12.044 80.0051 11.892 80.3891 11.796C80.7811 11.7 81.1771 11.652 81.5771 11.652C82.2171 11.652 82.7851 11.756 83.2811 11.964C83.7851 12.164 84.2091 12.46 84.5531 12.852C84.9051 13.244 85.1731 13.728 85.3571 14.304C85.5411 14.872 85.6331 15.524 85.6331 16.26V24H83.4851V16.26C83.4851 15.308 83.2771 14.588 82.8611 14.1C82.4451 13.604 81.8451 13.356 81.0611 13.356C80.7091 13.356 80.3731 13.42 80.0531 13.548C79.7411 13.668 79.4651 13.848 79.2251 14.088C78.9851 14.328 78.7931 14.632 78.6491 15C78.5131 15.36 78.4451 15.78 78.4451 16.26V24H76.2971V16.26C76.2971 15.284 76.1011 14.556 75.7091 14.076C75.3171 13.596 74.7451 13.356 73.9931 13.356C73.4651 13.356 72.9771 13.5 72.5291 13.788C72.0811 14.068 71.6691 14.452 71.2931 14.94V24H69.1451ZM95.4675 18.528C94.4835 18.56 93.6435 18.64 92.9475 18.768C92.2595 18.888 91.6955 19.048 91.2555 19.248C90.8235 19.448 90.5075 19.684 90.3075 19.956C90.1155 20.228 90.0195 20.532 90.0195 20.868C90.0195 21.188 90.0715 21.464 90.1755 21.696C90.2795 21.928 90.4195 22.12 90.5955 22.272C90.7795 22.416 90.9915 22.524 91.2315 22.596C91.4795 22.66 91.7435 22.692 92.0235 22.692C92.3995 22.692 92.7435 22.656 93.0555 22.584C93.3675 22.504 93.6595 22.392 93.9315 22.248C94.2115 22.104 94.4755 21.932 94.7235 21.732C94.9795 21.532 95.2275 21.304 95.4675 21.048V18.528ZM88.5675 13.56C89.2395 12.912 89.9635 12.428 90.7395 12.108C91.5155 11.788 92.3755 11.628 93.3195 11.628C93.9995 11.628 94.6035 11.74 95.1315 11.964C95.6595 12.188 96.1035 12.5 96.4635 12.9C96.8235 13.3 97.0955 13.784 97.2795 14.352C97.4635 14.92 97.5555 15.544 97.5555 16.224V24H96.6075C96.3995 24 96.2395 23.968 96.1275 23.904C96.0155 23.832 95.9275 23.696 95.8635 23.496L95.6235 22.344C95.3035 22.64 94.9915 22.904 94.6875 23.136C94.3835 23.36 94.0635 23.552 93.7275 23.712C93.3915 23.864 93.0315 23.98 92.6475 24.06C92.2715 24.148 91.8515 24.192 91.3875 24.192C90.9155 24.192 90.4715 24.128 90.0555 24C89.6395 23.864 89.2755 23.664 88.9635 23.4C88.6595 23.136 88.4155 22.804 88.2315 22.404C88.0555 21.996 87.9675 21.516 87.9675 20.964C87.9675 20.484 88.0995 20.024 88.3635 19.584C88.6275 19.136 89.0555 18.74 89.6475 18.396C90.2395 18.052 91.0115 17.772 91.9635 17.556C92.9155 17.332 94.0835 17.204 95.4675 17.172V16.224C95.4675 15.28 95.2635 14.568 94.8555 14.088C94.4475 13.6 93.8515 13.356 93.0675 13.356C92.5395 13.356 92.0955 13.424 91.7355 13.56C91.3835 13.688 91.0755 13.836 90.8115 14.004C90.5555 14.164 90.3315 14.312 90.1395 14.448C89.9555 14.576 89.7715 14.64 89.5875 14.64C89.4435 14.64 89.3195 14.604 89.2155 14.532C89.1115 14.452 89.0235 14.356 88.9515 14.244L88.5675 13.56ZM104.377 24.192C103.417 24.192 102.677 23.924 102.157 23.388C101.645 22.852 101.389 22.08 101.389 21.072V13.632H99.9251C99.7971 13.632 99.6891 13.596 99.6011 13.524C99.5131 13.444 99.4691 13.324 99.4691 13.164V12.312L101.461 12.06L101.953 8.304C101.977 8.184 102.029 8.088 102.109 8.016C102.197 7.936 102.309 7.896 102.445 7.896H103.525V12.084H107.041V13.632H103.525V20.928C103.525 21.44 103.649 21.82 103.897 22.068C104.145 22.316 104.465 22.44 104.857 22.44C105.081 22.44 105.273 22.412 105.433 22.356C105.601 22.292 105.745 22.224 105.865 22.152C105.985 22.08 106.085 22.016 106.165 21.96C106.253 21.896 106.329 21.864 106.393 21.864C106.505 21.864 106.605 21.932 106.693 22.068L107.317 23.088C106.949 23.432 106.505 23.704 105.985 23.904C105.465 24.096 104.929 24.192 104.377 24.192ZM117.312 16.596C117.312 16.1 117.24 15.648 117.096 15.24C116.96 14.824 116.756 14.468 116.484 14.172C116.22 13.868 115.896 13.636 115.512 13.476C115.128 13.308 114.692 13.224 114.204 13.224C113.18 13.224 112.368 13.524 111.768 14.124C111.176 14.716 110.808 15.54 110.664 16.596H117.312ZM119.04 22.296C118.776 22.616 118.46 22.896 118.092 23.136C117.724 23.368 117.328 23.56 116.904 23.712C116.488 23.864 116.056 23.976 115.608 24.048C115.16 24.128 114.716 24.168 114.276 24.168C113.436 24.168 112.66 24.028 111.948 23.748C111.244 23.46 110.632 23.044 110.112 22.5C109.6 21.948 109.2 21.268 108.912 20.46C108.624 19.652 108.48 18.724 108.48 17.676C108.48 16.828 108.608 16.036 108.864 15.3C109.128 14.564 109.504 13.928 109.992 13.392C110.48 12.848 111.076 12.424 111.78 12.12C112.484 11.808 113.276 11.652 114.156 11.652C114.884 11.652 115.556 11.776 116.172 12.024C116.796 12.264 117.332 12.616 117.78 13.08C118.236 13.536 118.592 14.104 118.848 14.784C119.104 15.456 119.232 16.224 119.232 17.088C119.232 17.424 119.196 17.648 119.124 17.76C119.052 17.872 118.916 17.928 118.716 17.928H110.592C110.616 18.696 110.72 19.364 110.904 19.932C111.096 20.5 111.36 20.976 111.696 21.36C112.032 21.736 112.432 22.02 112.896 22.212C113.36 22.396 113.88 22.488 114.456 22.488C114.992 22.488 115.452 22.428 115.836 22.308C116.228 22.18 116.564 22.044 116.844 21.9C117.124 21.756 117.356 21.624 117.54 21.504C117.732 21.376 117.896 21.312 118.032 21.312C118.208 21.312 118.344 21.38 118.44 21.516L119.04 22.296Z" fill="#FF5E53"/>
<g clip-path="url(#clip0_140_1986)">
<path d="M10.1988 3.49573C10.858 2.83655 11.9285 2.83655 12.5876 3.49573L18.9158 9.82385C19.575 10.483 19.575 11.5535 18.9158 12.2127L18.072 13.0565C17.4128 13.7156 16.3423 13.7156 15.6832 13.0565L15.4722 12.8455L9.84019 18.4723L10.0511 18.6832C10.7103 19.3424 10.7103 20.4129 10.0511 21.0721L9.20737 21.9158C8.54819 22.575 7.47768 22.575 6.8185 21.9158L0.490379 15.5877C-0.1688 14.9285 -0.1688 13.858 0.490379 13.1989L1.33413 12.3551C1.99331 11.6959 3.06382 11.6959 3.723 12.3551L3.93394 12.566L9.56597 6.93401L9.35503 6.72307C8.69585 6.06389 8.69585 4.99338 9.35503 4.3342L10.1988 3.49045V3.49573ZM18.2144 18.6832C18.8736 18.024 19.9441 18.024 20.6033 18.6832L26.5095 24.5895C27.1687 25.2487 27.1687 26.3192 26.5095 26.9783L23.9783 29.5096C23.3191 30.1688 22.2486 30.1688 21.5894 29.5096L15.6832 23.6033C15.024 22.9442 15.024 21.8737 15.6832 21.2145L15.757 21.1406L12.6562 18.0451L15.0451 15.6563L18.1406 18.7518L18.2144 18.678V18.6832Z" fill="#FF5E53"/>
</g>
<defs>
<clipPath id="clip0_140_1986">
<rect width="27" height="27" fill="white" transform="matrix(-1 0 0 1 27 3)"/>
</clipPath>
</defs>
</svg>
