<svg width="45" height="45" viewBox="0 0 45 45" fill="none" xmlns="http://www.w3.org/2000/svg">
<path d="M31.4062 7.5H13.5938C12.2262 7.5 10.9147 8.04325 9.94773 9.01023C8.98075 9.97721 8.4375 11.2887 8.4375 12.6562V15C10.0158 14.9996 11.5415 15.568 12.7347 16.6012C13.928 17.6343 14.7089 19.0628 14.9344 20.625H30.0656C30.2911 19.0628 31.072 17.6343 32.2653 16.6012C33.4585 15.568 34.9842 14.9996 36.5625 15V12.6562C36.5625 11.2887 36.0193 9.97721 35.0523 9.01023C34.0853 8.04325 32.7738 7.5 31.4062 7.5ZM31.875 21.5625C31.875 20.3193 32.3689 19.127 33.2479 18.2479C34.127 17.3689 35.3193 16.875 36.5625 16.875C37.8057 16.875 38.998 17.3689 39.8771 18.2479C40.7561 19.127 41.25 20.3193 41.25 21.5625V26.7188C41.2502 28.0052 40.7694 29.2453 39.9021 30.1956C39.0348 31.1458 37.8437 31.7374 36.5625 31.8544V34.2188C36.5625 34.5917 36.4143 34.9494 36.1506 35.2131C35.8869 35.4768 35.5292 35.625 35.1562 35.625C34.7833 35.625 34.4256 35.4768 34.1619 35.2131C33.8982 34.9494 33.75 34.5917 33.75 34.2188V31.875H11.25V34.2188C11.25 34.5917 11.1018 34.9494 10.8381 35.2131C10.5744 35.4768 10.2167 35.625 9.84375 35.625C9.47079 35.625 9.1131 35.4768 8.84938 35.2131C8.58566 34.9494 8.4375 34.5917 8.4375 34.2188V31.8544C7.15633 31.7374 5.96515 31.1458 5.09786 30.1956C4.23057 29.2453 3.74982 28.0052 3.75 26.7188V21.5625C3.75 20.3193 4.24386 19.127 5.12294 18.2479C6.00201 17.3689 7.1943 16.875 8.4375 16.875C9.6807 16.875 10.873 17.3689 11.7521 18.2479C12.6311 19.127 13.125 20.3193 13.125 21.5625C13.125 21.8111 13.2238 22.0496 13.3996 22.2254C13.5754 22.4012 13.8139 22.5 14.0625 22.5H30.9375C31.1861 22.5 31.4246 22.4012 31.6004 22.2254C31.7762 22.0496 31.875 21.8111 31.875 21.5625Z" fill="#FF5E53"/>
</svg>
