<svg xmlns="http://www.w3.org/2000/svg" xmlns:xlink="http://www.w3.org/1999/xlink" width="80" zoomAndPan="magnify" viewBox="0 0 60 60.75" height="81" preserveAspectRatio="xMidYMid meet" version="1.0"><defs><clipPath id="8cfb3bcf91"><path d="M 11 6.304688 L 46 6.304688 L 46 37 L 11 37 Z M 11 6.304688 " clip-rule="nonzero"/></clipPath><clipPath id="4a3751537b"><path d="M 18.203125 40 L 56.246094 40 L 56.246094 52.339844 L 18.203125 52.339844 Z M 18.203125 40 " clip-rule="nonzero"/></clipPath><clipPath id="b32cd0155b"><path d="M 3.941406 28 L 24.625 28 L 24.625 52.84375 L 3.941406 52.84375 Z M 3.941406 28 " clip-rule="nonzero"/></clipPath></defs><path fill="#e71626" d="M 20.691406 24.269531 C 22.699219 26.789062 25.191406 28.695312 28.148438 29.96875 C 27.742188 30.378906 27.210938 30.644531 26.628906 30.722656 C 25.925781 30.8125 25.226562 30.628906 24.664062 30.199219 L 21.386719 27.695312 C 20.824219 27.261719 20.460938 26.636719 20.367188 25.933594 C 20.289062 25.351562 20.40625 24.773438 20.691406 24.269531 " fill-opacity="1" fill-rule="nonzero"/><g clip-path="url(#8cfb3bcf91)"><path fill="#e71626" d="M 15.203125 19.125 L 22.671875 9.355469 C 22.976562 8.957031 23.109375 8.464844 23.039062 7.96875 C 22.976562 7.472656 22.71875 7.03125 22.320312 6.726562 C 21.921875 6.421875 21.429688 6.289062 20.933594 6.355469 C 20.4375 6.421875 19.996094 6.679688 19.691406 7.078125 L 12.222656 16.851562 C 11.597656 17.671875 11.753906 18.851562 12.574219 19.480469 C 13.394531 20.105469 14.574219 19.949219 15.203125 19.125 Z M 34.183594 35.300781 C 34.117188 34.804688 34.25 34.3125 34.554688 33.914062 L 42.019531 24.140625 C 42.328125 23.742188 42.769531 23.488281 43.265625 23.421875 C 43.347656 23.410156 43.433594 23.40625 43.515625 23.40625 C 43.925781 23.40625 44.320312 23.539062 44.648438 23.792969 C 45.472656 24.417969 45.628906 25.597656 45.003906 26.417969 L 37.53125 36.191406 C 36.90625 37.011719 35.726562 37.171875 34.90625 36.542969 C 34.507812 36.238281 34.25 35.796875 34.183594 35.300781 " fill-opacity="1" fill-rule="nonzero"/></g><path fill="#e71626" d="M 21.515625 35.429688 C 21.609375 35.429688 21.699219 35.421875 21.789062 35.417969 C 21.371094 36.125 20.960938 36.785156 20.550781 37.414062 C 19.347656 37.753906 18.050781 37.511719 17.058594 36.753906 C 16.066406 35.996094 15.492188 34.808594 15.503906 33.5625 C 16.042969 32.957031 16.582031 32.382812 17.101562 31.839844 C 17.324219 32.894531 17.910156 33.84375 18.777344 34.503906 C 19.566406 35.109375 20.535156 35.429688 21.515625 35.429688 " fill-opacity="1" fill-rule="nonzero"/><path fill="#e71626" d="M 37.96875 36.527344 L 38.417969 35.941406 L 44.082031 35.941406 C 46.019531 35.941406 47.59375 37.511719 47.605469 39.445312 L 27.152344 39.445312 C 27.164062 37.511719 28.742188 35.941406 30.675781 35.941406 L 33.789062 35.941406 C 33.945312 36.339844 34.207031 36.703125 34.570312 36.980469 C 35.007812 37.316406 35.527344 37.476562 36.039062 37.476562 C 36.769531 37.476562 37.492188 37.152344 37.96875 36.527344 " fill-opacity="1" fill-rule="nonzero"/><g clip-path="url(#4a3751537b)"><path fill="#e71626" d="M 49.617188 44.644531 L 25.140625 44.644531 C 24.988281 44.644531 24.867188 44.523438 24.867188 44.371094 C 24.867188 44.21875 24.988281 44.09375 25.140625 44.09375 L 49.617188 44.09375 C 49.769531 44.09375 49.894531 44.21875 49.894531 44.371094 C 49.894531 44.523438 49.769531 44.644531 49.617188 44.644531 Z M 49.617188 48.203125 L 25.140625 48.203125 C 24.988281 48.203125 24.867188 48.078125 24.867188 47.925781 C 24.867188 47.773438 24.988281 47.652344 25.140625 47.652344 L 49.617188 47.652344 C 49.769531 47.652344 49.894531 47.773438 49.894531 47.925781 C 49.894531 48.078125 49.769531 48.203125 49.617188 48.203125 Z M 54.601562 47.992188 C 53.386719 47.992188 52.402344 47.007812 52.402344 45.796875 L 52.402344 43.386719 C 52.402344 41.550781 50.90625 40.058594 49.070312 40.058594 L 25.6875 40.058594 C 23.851562 40.058594 22.355469 41.550781 22.355469 43.386719 L 22.355469 45.796875 C 22.355469 47.007812 21.371094 47.992188 20.160156 47.992188 C 19.25 47.992188 18.511719 48.734375 18.511719 49.640625 L 18.511719 50.59375 C 18.511719 51.5 19.25 52.238281 20.160156 52.238281 L 54.601562 52.238281 C 55.507812 52.238281 56.246094 51.5 56.246094 50.59375 L 56.246094 49.640625 C 56.246094 48.734375 55.507812 47.992188 54.601562 47.992188 " fill-opacity="1" fill-rule="nonzero"/></g><path fill="#e71626" d="M 32.125 30.679688 C 26.230469 29.339844 21.804688 25.957031 18.964844 20.621094 L 25.101562 12.589844 C 30.996094 13.929688 35.421875 17.3125 38.261719 22.648438 L 32.125 30.679688 " fill-opacity="1" fill-rule="nonzero"/><path fill="#e71626" d="M 32.621094 30.9375 L 34.050781 33.675781 C 34.070312 33.644531 34.089844 33.613281 34.113281 33.582031 L 41.585938 23.808594 C 41.609375 23.777344 41.632812 23.746094 41.660156 23.71875 L 38.644531 23.058594 Z M 23.171875 9.601562 L 24.605469 12.332031 L 18.585938 20.207031 L 15.566406 19.550781 C 15.589844 19.519531 15.617188 19.492188 15.640625 19.460938 L 23.109375 9.6875 C 23.132812 9.660156 23.148438 9.628906 23.171875 9.601562 " fill-opacity="1" fill-rule="nonzero"/><g clip-path="url(#b32cd0155b)"><path fill="#e71626" d="M 20.066406 28.90625 C 19.890625 29.089844 19.726562 29.265625 19.574219 29.410156 C 18.964844 29.984375 18.289062 30.636719 17.582031 31.351562 C 17.699219 32.425781 18.25 33.410156 19.109375 34.066406 C 19.972656 34.722656 21.066406 34.996094 22.132812 34.828125 C 22.570312 34.078125 23.015625 33.273438 23.484375 32.398438 C 23.585938 32.214844 23.707031 32.007812 23.839844 31.789062 C 24.039062 31.460938 24.261719 31.089844 24.445312 30.71875 C 24.40625 30.6875 24.367188 30.664062 24.328125 30.632812 L 21.054688 28.132812 C 21.015625 28.101562 20.980469 28.070312 20.945312 28.042969 C 20.632812 28.316406 20.335938 28.625 20.066406 28.90625 Z M 19.464844 38.117188 C 19.679688 38.117188 19.894531 38.097656 20.113281 38.070312 C 19.683594 38.695312 19.257812 39.292969 18.8125 39.878906 C 17.429688 41.699219 14.210938 45.910156 11.859375 48.984375 L 9.921875 51.515625 C 9.777344 51.703125 9.613281 51.882812 9.429688 52.046875 C 8.066406 53.28125 6.363281 52.996094 5.277344 52.167969 C 4.191406 51.335938 3.46875 49.765625 4.304688 48.128906 C 4.410156 47.917969 4.539062 47.710938 4.6875 47.515625 L 6.617188 44.988281 C 8.96875 41.910156 12.1875 37.695312 13.582031 35.882812 C 14.042969 35.285156 14.515625 34.710938 14.988281 34.15625 C 15.136719 35.351562 15.753906 36.449219 16.722656 37.191406 C 17.519531 37.796875 18.484375 38.117188 19.464844 38.117188 " fill-opacity="1" fill-rule="nonzero"/></g></svg>