<svg xmlns="http://www.w3.org/2000/svg" xmlns:xlink="http://www.w3.org/1999/xlink" width="218" zoomAndPan="magnify" viewBox="0 0 163.5 165.749995" height="221" preserveAspectRatio="xMidYMid meet" version="1.0"><defs><clipPath id="c0aadfe606"><path d="M 31 16.5 L 125 16.5 L 125 102 L 31 102 Z M 31 16.5 " clip-rule="nonzero"/></clipPath><clipPath id="ae99b1c212"><path d="M 49 109.226562 L 154.085938 109.226562 L 154.085938 143.714844 L 49 143.714844 Z M 49 109.226562 " clip-rule="nonzero"/></clipPath><clipPath id="eb4690bc8a"><path d="M 9.542969 76 L 66.699219 76 L 66.699219 145.105469 L 9.542969 145.105469 Z M 9.542969 76 " clip-rule="nonzero"/></clipPath></defs><path fill="#e71626" d="M 55.835938 66.144531 C 61.378906 73.109375 68.269531 78.375 76.445312 81.894531 C 75.3125 83.027344 73.855469 83.757812 72.246094 83.972656 C 70.296875 84.230469 68.367188 83.71875 66.808594 82.527344 L 57.757812 75.609375 C 56.199219 74.417969 55.191406 72.6875 54.933594 70.746094 C 54.71875 69.132812 55.042969 67.535156 55.835938 66.144531 " fill-opacity="1" fill-rule="nonzero"/><g clip-path="url(#c0aadfe606)"><path fill="#e71626" d="M 40.667969 51.933594 L 61.308594 24.929688 C 62.148438 23.828125 62.511719 22.464844 62.324219 21.097656 C 62.144531 19.726562 61.4375 18.503906 60.335938 17.667969 C 59.238281 16.824219 57.875 16.460938 56.503906 16.648438 C 55.132812 16.828125 53.914062 17.535156 53.070312 18.636719 L 32.433594 45.644531 C 30.699219 47.910156 31.136719 51.171875 33.40625 52.90625 C 35.671875 54.640625 38.933594 54.203125 40.667969 51.933594 Z M 93.121094 96.632812 C 92.933594 95.261719 93.296875 93.902344 94.140625 92.800781 L 114.777344 65.792969 C 115.617188 64.691406 116.839844 63.988281 118.210938 63.804688 C 118.445312 63.773438 118.675781 63.757812 118.90625 63.757812 C 120.039062 63.757812 121.128906 64.128906 122.039062 64.824219 C 124.308594 66.554688 124.746094 69.816406 123.011719 72.085938 L 102.375 99.09375 C 100.636719 101.363281 97.378906 101.800781 95.109375 100.0625 C 94.007812 99.226562 93.304688 98.003906 93.121094 96.632812 " fill-opacity="1" fill-rule="nonzero"/></g><path fill="#e71626" d="M 58.113281 96.984375 C 58.363281 96.984375 58.613281 96.964844 58.867188 96.949219 C 57.710938 98.90625 56.574219 100.734375 55.441406 102.464844 C 52.125 103.414062 48.539062 102.742188 45.789062 100.640625 C 43.046875 98.546875 41.464844 95.273438 41.5 91.828125 C 42.988281 90.148438 44.472656 88.5625 45.917969 87.066406 C 46.523438 89.980469 48.152344 92.605469 50.539062 94.425781 C 52.726562 96.09375 55.398438 96.984375 58.113281 96.984375 " fill-opacity="1" fill-rule="nonzero"/><path fill="#e71626" d="M 103.582031 100.019531 L 104.8125 98.402344 L 120.472656 98.402344 C 125.824219 98.402344 130.175781 102.734375 130.210938 108.078125 L 73.6875 108.078125 C 73.722656 102.734375 78.078125 98.402344 83.421875 98.402344 L 92.027344 98.402344 C 92.457031 99.503906 93.175781 100.503906 94.1875 101.273438 C 95.398438 102.199219 96.828125 102.648438 98.246094 102.648438 C 100.269531 102.648438 102.261719 101.742188 103.582031 100.019531 " fill-opacity="1" fill-rule="nonzero"/><g clip-path="url(#ae99b1c212)"><path fill="#e71626" d="M 135.765625 122.453125 L 68.128906 122.453125 C 67.710938 122.453125 67.367188 122.113281 67.367188 121.691406 C 67.367188 121.273438 67.710938 120.929688 68.128906 120.929688 L 135.765625 120.929688 C 136.183594 120.929688 136.527344 121.273438 136.527344 121.691406 C 136.527344 122.113281 136.183594 122.453125 135.765625 122.453125 Z M 135.765625 132.277344 L 68.128906 132.277344 C 67.710938 132.277344 67.367188 131.9375 67.367188 131.515625 C 67.367188 131.097656 67.710938 130.757812 68.128906 130.757812 L 135.765625 130.757812 C 136.183594 130.757812 136.527344 131.097656 136.527344 131.515625 C 136.527344 131.9375 136.183594 132.277344 135.765625 132.277344 Z M 149.535156 131.707031 C 146.183594 131.707031 143.460938 128.984375 143.460938 125.632812 L 143.460938 118.976562 C 143.460938 113.902344 139.332031 109.773438 134.253906 109.773438 L 69.644531 109.773438 C 64.566406 109.773438 60.433594 113.902344 60.433594 118.976562 L 60.433594 125.632812 C 60.433594 128.984375 57.714844 131.707031 54.363281 131.707031 C 51.851562 131.707031 49.8125 133.75 49.8125 136.257812 L 49.8125 138.886719 C 49.8125 141.398438 51.851562 143.4375 54.363281 143.4375 L 149.535156 143.4375 C 152.042969 143.4375 154.085938 141.398438 154.085938 138.886719 L 154.085938 136.257812 C 154.085938 133.75 152.042969 131.707031 149.535156 131.707031 " fill-opacity="1" fill-rule="nonzero"/></g><path fill="#e71626" d="M 87.429688 83.859375 C 71.140625 80.15625 58.90625 70.804688 51.058594 56.058594 L 68.015625 33.871094 C 84.304688 37.570312 96.542969 46.921875 104.386719 61.671875 L 87.429688 83.859375 " fill-opacity="1" fill-rule="nonzero"/><path fill="#e71626" d="M 88.800781 84.570312 L 92.746094 92.140625 C 92.808594 92.054688 92.863281 91.960938 92.925781 91.875 L 113.570312 64.871094 C 113.636719 64.785156 113.707031 64.703125 113.777344 64.625 L 105.441406 62.800781 Z M 62.683594 25.613281 L 66.648438 33.15625 L 50.011719 54.921875 L 41.671875 53.101562 C 41.738281 53.023438 41.8125 52.945312 41.878906 52.855469 L 62.519531 25.855469 C 62.574219 25.773438 62.625 25.691406 62.683594 25.613281 " fill-opacity="1" fill-rule="nonzero"/><g clip-path="url(#eb4690bc8a)"><path fill="#e71626" d="M 54.109375 78.957031 C 53.621094 79.46875 53.164062 79.957031 52.75 80.347656 C 51.0625 81.941406 49.195312 83.738281 47.238281 85.714844 C 47.5625 88.683594 49.085938 91.402344 51.460938 93.214844 C 53.839844 95.035156 56.867188 95.792969 59.820312 95.324219 C 61.019531 93.25 62.253906 91.03125 63.554688 88.609375 C 63.828125 88.101562 64.167969 87.53125 64.535156 86.925781 C 65.089844 86.015625 65.699219 84.996094 66.207031 83.960938 C 66.097656 83.886719 65.988281 83.816406 65.886719 83.734375 L 56.832031 76.820312 C 56.730469 76.738281 56.636719 76.648438 56.535156 76.566406 C 55.671875 77.332031 54.851562 78.183594 54.109375 78.957031 Z M 52.441406 104.410156 C 53.039062 104.410156 53.632812 104.363281 54.230469 104.277344 C 53.050781 106.011719 51.867188 107.667969 50.640625 109.285156 C 46.820312 114.308594 37.925781 125.941406 31.425781 134.4375 L 26.074219 141.4375 C 25.675781 141.957031 25.21875 142.453125 24.714844 142.90625 C 20.949219 146.316406 16.238281 145.527344 13.238281 143.238281 C 10.242188 140.945312 8.242188 136.605469 10.546875 132.078125 C 10.835938 131.492188 11.199219 130.925781 11.609375 130.386719 L 16.941406 123.402344 C 23.441406 114.894531 32.335938 103.246094 36.1875 98.238281 C 37.464844 96.585938 38.765625 94.996094 40.074219 93.46875 C 40.480469 96.765625 42.1875 99.804688 44.863281 101.851562 C 47.066406 103.53125 49.734375 104.410156 52.441406 104.410156 " fill-opacity="1" fill-rule="nonzero"/></g></svg>