<svg xmlns="http://www.w3.org/2000/svg" xmlns:xlink="http://www.w3.org/1999/xlink" width="300" zoomAndPan="magnify" viewBox="0 0 224.87999 227.999995" height="304" preserveAspectRatio="xMidYMid meet" version="1.0"><defs><clipPath id="17b4c12709"><path d="M 62 49.453125 L 156 49.453125 L 156 135 L 62 135 Z M 62 49.453125 " clip-rule="nonzero"/></clipPath><clipPath id="33bf7da537"><path d="M 80 142.414062 L 185.136719 142.414062 L 185.136719 176.992188 L 80 176.992188 Z M 80 142.414062 " clip-rule="nonzero"/></clipPath><clipPath id="49ba2d3a76"><path d="M 40.230469 109 L 97.527344 109 L 97.527344 178.386719 L 40.230469 178.386719 Z M 40.230469 109 " clip-rule="nonzero"/></clipPath></defs><path fill="#e71626" d="M 86.636719 99.226562 C 92.195312 106.207031 99.101562 111.484375 107.300781 115.015625 C 106.164062 116.152344 104.703125 116.886719 103.089844 117.101562 C 101.136719 117.359375 99.203125 116.847656 97.640625 115.648438 L 88.5625 108.714844 C 87 107.519531 85.992188 105.785156 85.734375 103.835938 C 85.519531 102.222656 85.84375 100.621094 86.636719 99.226562 " fill-opacity="1" fill-rule="nonzero"/><g clip-path="url(#17b4c12709)"><path fill="#e71626" d="M 71.433594 84.980469 L 92.125 57.90625 C 92.96875 56.804688 93.328125 55.4375 93.144531 54.066406 C 92.964844 52.691406 92.253906 51.46875 91.148438 50.625 C 90.050781 49.78125 88.683594 49.417969 87.308594 49.601562 C 85.933594 49.785156 84.714844 50.496094 83.867188 51.597656 L 63.175781 78.671875 C 61.4375 80.945312 61.875 84.214844 64.152344 85.957031 C 66.425781 87.691406 69.695312 87.253906 71.433594 84.980469 Z M 124.015625 129.792969 C 123.832031 128.414062 124.195312 127.054688 125.039062 125.949219 L 145.726562 98.875 C 146.574219 97.769531 147.796875 97.066406 149.167969 96.878906 C 149.40625 96.847656 149.636719 96.832031 149.867188 96.832031 C 151.003906 96.832031 152.09375 97.203125 153.007812 97.902344 C 155.285156 99.640625 155.722656 102.90625 153.984375 105.183594 L 133.292969 132.257812 C 131.554688 134.53125 128.289062 134.972656 126.011719 133.230469 C 124.90625 132.390625 124.203125 131.167969 124.015625 129.792969 " fill-opacity="1" fill-rule="nonzero"/></g><path fill="#e71626" d="M 88.921875 130.144531 C 89.175781 130.144531 89.425781 130.125 89.679688 130.109375 C 88.519531 132.070312 87.378906 133.902344 86.246094 135.640625 C 82.917969 136.589844 79.320312 135.917969 76.566406 133.808594 C 73.820312 131.710938 72.234375 128.425781 72.269531 124.972656 C 73.757812 123.289062 75.246094 121.699219 76.695312 120.199219 C 77.304688 123.121094 78.9375 125.753906 81.328125 127.578125 C 83.519531 129.253906 86.199219 130.144531 88.921875 130.144531 " fill-opacity="1" fill-rule="nonzero"/><path fill="#e71626" d="M 134.503906 133.183594 L 135.742188 131.566406 L 151.4375 131.566406 C 156.800781 131.566406 161.167969 135.910156 161.203125 141.265625 L 104.535156 141.265625 C 104.570312 135.910156 108.9375 131.566406 114.296875 131.566406 L 122.921875 131.566406 C 123.351562 132.667969 124.074219 133.671875 125.085938 134.441406 C 126.300781 135.375 127.734375 135.820312 129.15625 135.820312 C 131.183594 135.820312 133.183594 134.914062 134.503906 133.183594 " fill-opacity="1" fill-rule="nonzero"/><g clip-path="url(#33bf7da537)"><path fill="#e71626" d="M 166.769531 155.675781 L 98.964844 155.675781 C 98.542969 155.675781 98.199219 155.335938 98.199219 154.914062 C 98.199219 154.496094 98.542969 154.152344 98.964844 154.152344 L 166.769531 154.152344 C 167.191406 154.152344 167.535156 154.496094 167.535156 154.914062 C 167.535156 155.335938 167.191406 155.675781 166.769531 155.675781 Z M 166.769531 165.527344 L 98.964844 165.527344 C 98.542969 165.527344 98.199219 165.183594 98.199219 164.761719 C 98.199219 164.34375 98.542969 164.003906 98.964844 164.003906 L 166.769531 164.003906 C 167.191406 164.003906 167.535156 164.34375 167.535156 164.761719 C 167.535156 165.183594 167.191406 165.527344 166.769531 165.527344 Z M 180.574219 164.953125 C 177.210938 164.953125 174.484375 162.222656 174.484375 158.863281 L 174.484375 152.191406 C 174.484375 147.105469 170.34375 142.964844 165.253906 142.964844 L 100.480469 142.964844 C 95.390625 142.964844 91.25 147.105469 91.25 152.191406 L 91.25 158.863281 C 91.25 162.222656 88.523438 164.953125 85.160156 164.953125 C 82.644531 164.953125 80.597656 167 80.597656 169.519531 L 80.597656 172.152344 C 80.597656 174.667969 82.644531 176.714844 85.160156 176.714844 L 180.574219 176.714844 C 183.089844 176.714844 185.136719 174.667969 185.136719 172.152344 L 185.136719 169.519531 C 185.136719 167 183.089844 164.953125 180.574219 164.953125 " fill-opacity="1" fill-rule="nonzero"/></g><path fill="#e71626" d="M 118.3125 116.984375 C 101.980469 113.273438 89.71875 103.898438 81.847656 89.117188 L 98.847656 66.871094 C 115.179688 70.582031 127.449219 79.953125 135.3125 94.742188 L 118.3125 116.984375 " fill-opacity="1" fill-rule="nonzero"/><path fill="#e71626" d="M 119.6875 117.699219 L 123.640625 125.289062 C 123.703125 125.199219 123.757812 125.109375 123.824219 125.023438 L 144.519531 97.949219 C 144.585938 97.863281 144.65625 97.78125 144.726562 97.703125 L 136.371094 95.871094 Z M 93.503906 58.589844 L 97.476562 66.15625 L 80.800781 87.976562 L 72.4375 86.152344 C 72.507812 86.070312 72.582031 85.992188 72.644531 85.90625 L 93.335938 58.835938 C 93.394531 58.753906 93.445312 58.671875 93.503906 58.589844 " fill-opacity="1" fill-rule="nonzero"/><g clip-path="url(#49ba2d3a76)"><path fill="#e71626" d="M 84.910156 112.074219 C 84.417969 112.585938 83.960938 113.070312 83.542969 113.464844 C 81.851562 115.0625 79.980469 116.867188 78.019531 118.84375 C 78.34375 121.820312 79.875 124.550781 82.253906 126.367188 C 84.640625 128.1875 87.671875 128.949219 90.632812 128.480469 C 91.835938 126.402344 93.070312 124.175781 94.375 121.746094 C 94.648438 121.238281 94.992188 120.667969 95.359375 120.0625 C 95.914062 119.144531 96.523438 118.125 97.035156 117.089844 C 96.925781 117.011719 96.820312 116.941406 96.714844 116.863281 L 87.636719 109.925781 C 87.535156 109.847656 87.441406 109.757812 87.339844 109.675781 C 86.472656 110.441406 85.652344 111.296875 84.910156 112.074219 Z M 83.234375 137.589844 C 83.832031 137.589844 84.429688 137.542969 85.03125 137.457031 C 83.847656 139.195312 82.660156 140.851562 81.429688 142.472656 C 77.601562 147.515625 68.683594 159.175781 62.167969 167.691406 L 56.800781 174.707031 C 56.402344 175.230469 55.945312 175.726562 55.4375 176.183594 C 51.664062 179.601562 46.941406 178.808594 43.933594 176.515625 C 40.929688 174.214844 38.925781 169.863281 41.234375 165.328125 C 41.527344 164.738281 41.890625 164.167969 42.300781 163.628906 L 47.648438 156.628906 C 54.160156 148.101562 63.078125 136.421875 66.941406 131.402344 C 68.21875 129.742188 69.523438 128.148438 70.835938 126.621094 C 71.246094 129.925781 72.953125 132.972656 75.640625 135.023438 C 77.847656 136.707031 80.523438 137.589844 83.234375 137.589844 " fill-opacity="1" fill-rule="nonzero"/></g></svg>