<svg width="35" height="35" viewBox="0 0 35 35" fill="none" xmlns="http://www.w3.org/2000/svg">
<path d="M28.1056 2.90423L30.6256 0.386485C30.7481 0.26396 30.8935 0.166762 31.0535 0.100448C31.2135 0.0341329 31.3851 0 31.5583 0C31.7315 0 31.903 0.0341329 32.063 0.100448C32.2231 0.166762 32.3685 0.26396 32.4909 0.386485L34.5046 2.40023C35.0221 2.91773 35.0221 3.75023 34.5046 4.26773L31.9869 6.78548L28.1056 2.90423ZM26.5149 4.49498L20.8224 10.1897L20.5299 9.89723C19.9939 9.36125 19.3381 8.96033 18.6168 8.72752C17.8954 8.49471 17.129 8.43667 16.3808 8.55819C15.6325 8.6797 14.9239 8.9773 14.3133 9.42644C13.7027 9.87558 13.2075 10.4634 12.8686 11.1415L12.1059 12.6647C11.9727 12.9323 11.7551 13.1485 11.4866 13.2799C11.2182 13.4113 10.9139 13.4505 10.6209 13.3915L10.4904 13.3645C8.94239 13.0547 7.33832 13.1893 5.86357 13.7527C4.38882 14.3161 3.10359 15.2853 2.1564 16.5482C0.599235 18.6239 -0.156807 21.1916 0.027125 23.7799C0.211057 26.3681 1.32261 28.8032 3.15765 30.6377L4.2534 31.7335C6.0882 33.5681 8.52317 34.6794 11.1113 34.8633C13.6995 35.0472 16.2671 34.2914 18.3429 32.7347C19.6059 31.7875 20.5751 30.5023 21.1385 29.0276C21.7018 27.5528 21.8364 25.9487 21.5266 24.4007L21.5019 24.268C21.4432 23.9756 21.4824 23.672 21.6133 23.404C21.7442 23.1361 21.9597 22.9187 22.2264 22.7852L23.7496 22.0247C24.4281 21.686 25.0163 21.1908 25.4658 20.5799C25.9152 19.9691 26.213 19.2602 26.3345 18.5116C26.456 17.7631 26.3978 16.9964 26.1648 16.2748C25.9317 15.5531 25.5303 14.8973 24.9939 14.3612L24.7014 14.0687L30.3939 8.37624L26.5149 4.49498ZM14.3244 20.5667C14.0632 20.3055 13.856 19.9954 13.7146 19.6542C13.5733 19.3129 13.5005 18.9471 13.5005 18.5777C13.5005 17.8317 13.7969 17.1162 14.3244 16.5887C14.8519 16.0612 15.5674 15.7649 16.3134 15.7649C17.0594 15.7649 17.7749 16.0612 18.3024 16.5887C18.8299 17.1162 19.1263 17.8317 19.1263 18.5777C19.1263 19.3238 18.8299 20.0392 18.3024 20.5667C17.7749 21.0943 17.0594 21.3906 16.3134 21.3906C15.5674 21.3906 14.8519 21.0943 14.3244 20.5667Z" fill="white"/>
</svg>
