<svg width="45" height="45" viewBox="0 0 45 45" fill="none" xmlns="http://www.w3.org/2000/svg">
<path d="M36 25.5C36 29.0804 34.5777 32.5142 32.0459 35.0459C29.5142 37.5777 26.0804 39 22.5 39C18.9196 39 15.4858 37.5777 12.9541 35.0459C10.4223 32.5142 9 29.0804 9 25.5C9.00138 22.8693 9.77166 20.2965 11.2161 18.0978C12.6605 15.8992 14.7161 14.1707 17.13 13.125L17.658 13.536L19.98 15.339C17.707 15.8998 15.6869 17.2046 14.2409 19.0458C12.7949 20.887 12.0061 23.1589 12 25.5C12 31.29 16.71 36 22.5 36C28.29 36 33 31.29 33 25.5C32.9939 23.1589 32.2051 20.887 30.7591 19.0458C29.3131 17.2046 27.293 15.8998 25.02 15.339L27.87 13.125C30.2839 14.1707 32.3395 15.8992 33.7839 18.0978C35.2283 20.2965 35.9986 22.8693 36 25.5ZM22.5 13.5L30 7.665L27 3H18L15 7.665L19.5 11.166L22.5 13.5Z" fill="white"/>
</svg>
