<svg width="21" height="21" viewBox="0 0 21 21" fill="none" xmlns="http://www.w3.org/2000/svg">
<path d="M3.5 17.5C3.01875 17.5 2.60692 17.3288 2.2645 16.9864C1.92208 16.644 1.75058 16.2318 1.75 15.75V5.25C1.75 4.76875 1.9215 4.35692 2.2645 4.0145C2.6075 3.67208 3.01933 3.50058 3.5 3.5H17.5C17.9813 3.5 18.3934 3.6715 18.7364 4.0145C19.0794 4.3575 19.2506 4.76933 19.25 5.25V15.75C19.25 16.2312 19.0788 16.6434 18.7364 16.9864C18.394 17.3294 17.9818 17.5006 17.5 17.5H3.5ZM10.5 11.375L17.5 7V5.25L10.5 9.625L3.5 5.25V7L10.5 11.375Z" fill="#FF5E53"/>
</svg>
