<svg width="23" height="23" viewBox="0 0 23 23" fill="none" xmlns="http://www.w3.org/2000/svg">
<path d="M5.74992 21.0833C5.22284 21.0833 4.77178 20.8958 4.39675 20.5208C4.02172 20.1457 3.83389 19.6944 3.83325 19.1666V9.58331C3.83325 9.05623 4.02109 8.60518 4.39675 8.23015C4.77242 7.85512 5.22347 7.66729 5.74992 7.66665H6.70825V5.74998C6.70825 4.42429 7.1756 3.29441 8.11029 2.36035C9.04499 1.4263 10.1749 0.958952 11.4999 0.958313C12.8256 0.958313 13.9558 1.42566 14.8905 2.36035C15.8252 3.29505 16.2922 4.42492 16.2916 5.74998V7.66665H17.2499C17.777 7.66665 18.2284 7.85448 18.604 8.23015C18.9797 8.60581 19.1672 9.05687 19.1666 9.58331V19.1666C19.1666 19.6937 18.9791 20.1451 18.604 20.5208C18.229 20.8964 17.7776 21.084 17.2499 21.0833H5.74992ZM11.4999 16.2916C12.027 16.2916 12.4784 16.1041 12.854 15.7291C13.2297 15.3541 13.4172 14.9027 13.4166 14.375C13.4166 13.8479 13.2291 13.3968 12.854 13.0218C12.479 12.6468 12.0276 12.459 11.4999 12.4583C10.9728 12.4583 10.5218 12.6461 10.1468 13.0218C9.77172 13.3975 9.58389 13.8485 9.58325 14.375C9.58325 14.9021 9.77109 15.3534 10.1468 15.7291C10.5224 16.1048 10.9735 16.2923 11.4999 16.2916ZM8.62492 7.66665H14.3749V5.74998C14.3749 4.95137 14.0954 4.27255 13.5364 3.71352C12.9773 3.15449 12.2985 2.87498 11.4999 2.87498C10.7013 2.87498 10.0225 3.15449 9.46346 3.71352C8.90443 4.27255 8.62492 4.95137 8.62492 5.74998V7.66665Z" fill="white"/>
</svg>
