<svg width="40" height="40" viewBox="0 0 40 40" fill="none" xmlns="http://www.w3.org/2000/svg">
<circle cx="20" cy="20" r="20" fill="#FF5E53"/>
<circle cx="20" cy="11" r="7" fill="white"/>
<path d="M31 33C32.1046 33 33.0157 32.0994 32.8465 31.0079C32.688 29.9862 32.4079 28.9847 32.0104 28.0251C31.3571 26.4479 30.3995 25.0148 29.1924 23.8076C27.9852 22.6005 26.5521 21.6429 24.9749 20.9896C23.3977 20.3363 21.7072 20 20 20C18.2928 20 16.6023 20.3363 15.0251 20.9896C13.4479 21.6429 12.0148 22.6005 10.8076 23.8076C9.60045 25.0148 8.64288 26.4479 7.98957 28.0251C7.59209 28.9847 7.31198 29.9862 7.15354 31.0079C6.98428 32.0994 7.89543 33 9 33L20 33H31Z" fill="white"/>
</svg>
