<svg width="40" height="40" viewBox="0 0 40 40" fill="none" xmlns="http://www.w3.org/2000/svg">
<circle cx="20" cy="20" r="20" fill="#E71626"/>
<circle cx="20" cy="13" r="6" fill="white"/>
<path d="M30 30.5C31.1046 30.5 32.0177 29.598 31.8265 28.5101C31.6816 27.6852 31.4466 26.8766 31.1246 26.0991C30.5467 24.7039 29.6996 23.4361 28.6317 22.3683C27.5639 21.3004 26.2961 20.4533 24.9009 19.8754C23.5056 19.2975 22.0102 19 20.5 19C18.9898 19 17.4944 19.2975 16.0991 19.8754C14.7039 20.4533 13.4361 21.3004 12.3683 22.3683C11.3004 23.4361 10.4533 24.7039 9.87539 26.0991C9.55335 26.8766 9.3184 27.6852 9.17348 28.5101C8.98234 29.598 9.89543 30.5 11 30.5L20.5 30.5H30Z" fill="white"/>
</svg>
