<svg width="45" height="45" viewBox="0 0 45 45" fill="none" xmlns="http://www.w3.org/2000/svg">
<path d="M28.5 21C27.11 20.1607 25.7906 19.2095 24.555 18.156L18.03 9.663C17.8273 9.39509 17.5487 9.19436 17.2304 9.08693C16.912 8.97949 16.5688 8.97032 16.2452 9.0606C15.9216 9.15089 15.6326 9.33645 15.4159 9.59316C15.1992 9.84987 15.0647 10.1658 15.03 10.5H15V15H9.627C9.42795 15.0008 9.23074 14.9619 9.04687 14.8857C8.86299 14.8094 8.69613 14.6974 8.556 14.556C8.556 14.556 7.5 12 6 12H4.5C4.10218 12 3.72064 12.158 3.43934 12.4393C3.15804 12.7206 3 13.1022 3 13.5V27H19.5C24 27 25.5 30 30 30H42V28.5C42 24 31.641 22.782 28.5 21ZM28.5 33C26.884 32.9544 25.3072 32.4925 23.922 31.659C22.1203 30.6135 20.0826 30.0426 18 30H3V34.5C3 34.8978 3.15804 35.2794 3.43934 35.5607C3.72064 35.842 4.10218 36 4.5 36H16.5C16.8978 36 17.2794 35.842 17.5607 35.5607C17.842 35.2794 18 34.8978 18 34.5V33C19.6159 33.046 21.1927 33.5079 22.578 34.341C24.3797 35.3865 26.4174 35.9574 28.5 36H40.5C40.8978 36 41.2794 35.842 41.5607 35.5607C41.842 35.2794 42 34.8978 42 34.5V33H28.5Z" fill="#FF5E53"/>
</svg>
