<svg width="18" height="21" viewBox="0 0 18 21" fill="none" xmlns="http://www.w3.org/2000/svg">
<circle cx="8.99996" cy="4.84615" r="4.84615" fill="#E71626"/>
<path d="M16.6154 20.0769C17.3801 20.0769 18.0109 19.4534 17.8937 18.6977C17.784 17.9904 17.5901 17.2971 17.3149 16.6328C16.8626 15.5408 16.1997 14.5487 15.364 13.7129C14.5282 12.8772 13.5361 12.2143 12.4442 11.762C11.3522 11.3097 10.1819 11.0769 9 11.0769C7.8181 11.0769 6.64778 11.3097 5.55585 11.762C4.46392 12.2143 3.47177 12.8772 2.63604 13.7129C1.80031 14.5487 1.13738 15.5408 0.685084 16.6328C0.409911 17.2971 0.215986 17.9904 0.1063 18.6977C-0.0108841 19.4534 0.619913 20.0769 1.38462 20.0769L9 20.0769H16.6154Z" fill="#E71626"/>
</svg>
