<svg width="45" height="45" viewBox="0 0 45 45" fill="none" xmlns="http://www.w3.org/2000/svg">
<path d="M23.9062 14.0625C23.9062 13.6895 23.7581 13.3319 23.4944 13.0681C23.2306 12.8044 22.873 12.6562 22.5 12.6562C22.127 12.6562 21.7694 12.8044 21.5056 13.0681C21.2419 13.3319 21.0938 13.6895 21.0938 14.0625V21.0938H16.875C16.502 21.0938 16.1444 21.2419 15.8806 21.5056C15.6169 21.7694 15.4688 22.127 15.4688 22.5C15.4688 22.873 15.6169 23.2306 15.8806 23.4944C16.1444 23.7581 16.502 23.9062 16.875 23.9062H22.5C22.873 23.9062 23.2306 23.7581 23.4944 23.4944C23.7581 23.2306 23.9062 22.873 23.9062 22.5V14.0625Z" fill="#E71626"/>
<path d="M15.9384 45C13.3509 45 11.25 42.9019 11.25 40.3116V35.0803C9.47795 33.4989 8.0606 31.5604 7.09113 29.3922C6.12166 27.2239 5.62201 24.8751 5.62501 22.5C5.62501 17.5022 7.79626 13.0106 11.25 9.9225V4.68844C11.25 2.10094 13.3481 0 15.9384 0H29.0616C31.6491 0 33.75 2.09813 33.75 4.68844V9.91969C36.6094 12.4734 38.5123 15.9259 39.1444 19.7072C39.3456 19.6747 39.5515 19.6862 39.7479 19.7408C39.9442 19.7954 40.1264 19.892 40.282 20.0237C40.4375 20.1554 40.5627 20.3193 40.6489 20.504C40.735 20.6887 40.7802 20.8899 40.7813 21.0938V23.9062C40.7812 24.1104 40.7366 24.312 40.6508 24.4972C40.5649 24.6824 40.4397 24.8467 40.2839 24.9786C40.1282 25.1106 39.9456 25.207 39.7488 25.2613C39.552 25.3155 39.3458 25.3263 39.1444 25.2928C38.5123 29.0741 36.6094 32.5266 33.75 35.0803V40.3116C33.75 42.8991 31.6519 45 29.0616 45H15.9384ZM36.5625 22.5C36.5625 18.7704 35.0809 15.1935 32.4437 12.5563C29.8065 9.91908 26.2296 8.4375 22.5 8.4375C18.7704 8.4375 15.1936 9.91908 12.5563 12.5563C9.91909 15.1935 8.43751 18.7704 8.43751 22.5C8.43751 26.2296 9.91909 29.8065 12.5563 32.4437C15.1936 35.0809 18.7704 36.5625 22.5 36.5625C26.2296 36.5625 29.8065 35.0809 32.4437 32.4437C35.0809 29.8065 36.5625 26.2296 36.5625 22.5Z" fill="#E71626"/>
</svg>
