<svg width="320" height="603" viewBox="0 0 320 603" fill="none" xmlns="http://www.w3.org/2000/svg">
<g clip-path="url(#clip0_51_593)">
<rect x="-396" y="-92" width="1100" height="695" fill="url(#paint0_linear_51_593)"/>
<g style="mix-blend-mode:overlay">
<path d="M-84.4452 110.003L-143.46 131.487C-251.753 170.911 -324.422 273.148 -326.058 388.383C-328.235 541.673 -205.734 667.704 -52.4434 669.881L678.842 680.267C803.401 682.036 905.809 582.495 907.578 457.937L908.113 420.292C910.133 278.063 767.371 179.132 634.908 230.968C590.673 248.279 541.724 249.301 496.805 233.852L131.099 108.075C61.1495 84.0177 -14.9376 84.6981 -84.4452 110.003Z" fill="url(#paint1_linear_51_593)" fill-opacity="0.5"/>
</g>
<g style="mix-blend-mode:overlay">
<path d="M-127.472 259.032L-326.717 312.325C-400.608 332.089 -452 399.034 -452 475.522C-452 568.251 -377.254 643.647 -284.529 644.451L730.106 653.239C798.632 653.832 854.5 598.446 854.5 529.918C854.5 455.661 789.358 398.244 715.689 407.568L622.47 419.366C590.598 423.399 558.225 419.928 527.932 409.229L131.337 269.152C48.0648 239.74 -42.1577 236.212 -127.472 259.032Z" fill="url(#paint2_linear_51_593)"/>
</g>
<g style="mix-blend-mode:overlay">
<path d="M-211.732 498.748L-438.029 483.535C-487.794 480.189 -530 519.654 -530 569.53C-530 616.857 -491.838 655.331 -444.512 655.717L727.938 665.266C777.559 665.671 818 625.557 818 575.935C818 532.951 787.389 496.062 745.143 488.133L378.311 419.289C303.532 405.255 226.628 407.208 152.658 425.02L-121.904 491.132C-151.288 498.207 -181.576 500.775 -211.732 498.748Z" fill="url(#paint3_linear_51_593)"/>
</g>
<g style="mix-blend-mode:overlay">
<path d="M-163.512 261.478L-450.104 348.297C-497.551 362.67 -530 406.405 -530 455.982C-530 518.124 -479.624 568.5 -417.482 568.5H634.39C703.521 568.5 760.67 514.614 764.729 445.602C769.371 366.694 703.384 301.792 624.564 307.74L556.121 312.906C542.084 313.965 527.972 313.466 514.044 311.417L61.2424 244.806C-13.9893 233.739 -90.7371 239.432 -163.512 261.478Z" fill="url(#paint4_linear_51_593)" fill-opacity="0.5"/>
</g>
</g>
<defs>
<linearGradient id="paint0_linear_51_593" x1="154" y1="-92" x2="154" y2="603" gradientUnits="userSpaceOnUse">
<stop stop-color="#FAAE69"/>
<stop offset="0.489583" stop-color="white"/>
<stop offset="0.994792" stop-color="white"/>
</linearGradient>
<linearGradient id="paint1_linear_51_593" x1="295.708" y1="74.7653" x2="287.188" y2="674.705" gradientUnits="userSpaceOnUse">
<stop stop-color="white"/>
<stop offset="1" stop-color="#D9D9D9" stop-opacity="0"/>
</linearGradient>
<linearGradient id="paint2_linear_51_593" x1="173" y1="300" x2="173" y2="643" gradientUnits="userSpaceOnUse">
<stop/>
<stop offset="1" stop-opacity="0"/>
</linearGradient>
<linearGradient id="paint3_linear_51_593" x1="144" y1="398" x2="144" y2="666" gradientUnits="userSpaceOnUse">
<stop/>
<stop offset="1" stop-opacity="0"/>
</linearGradient>
<linearGradient id="paint4_linear_51_593" x1="121.75" y1="228" x2="121.75" y2="568.5" gradientUnits="userSpaceOnUse">
<stop stop-color="#FF5E53"/>
<stop offset="1" stop-color="#FAAE69"/>
</linearGradient>
<clipPath id="clip0_51_593">
<rect width="320" height="603" fill="white"/>
</clipPath>
</defs>
</svg>
